/* XPM */
static char *icewm_32x32[] = {
/* columns rows colors chars-per-pixel */
"32 32 216 2",
"   c black",
".  c #24263B",
"X  c #3B3B4A",
"o  c #2C3D6F",
"O  c #2D3E73",
"+  c #2F4071",
"@  c #2F4178",
"#  c #3A446C",
"$  c #324374",
"%  c #33447B",
"&  c #36487C",
"*  c #384773",
"=  c #3C4A75",
"-  c #3B4B7B",
";  c #414154",
":  c #464C67",
">  c #454B72",
",  c #404F7C",
"<  c #484E74",
"1  c #42517D",
"2  c #4A5077",
"3  c #49547A",
"4  c #4F597F",
"5  c #555866",
"6  c #54586C",
"7  c #595963",
"8  c #575F7B",
"9  c #64626F",
"0  c #65697C",
"q  c #6E6E7A",
"w  c #344680",
"e  c #344880",
"r  c #3A4C81",
"t  c #3E5087",
"y  c #3E5088",
"u  c #435383",
"i  c #425389",
"p  c #485784",
"a  c #485788",
"s  c #4C5A85",
"d  c #4C5B89",
"f  c #515E84",
"g  c #505E8A",
"h  c #536085",
"j  c #52618B",
"k  c #5A6282",
"l  c #5C658A",
"z  c #5E688A",
"x  c #556392",
"c  c #5F6C92",
"v  c #626882",
"b  c #626B8B",
"n  c #6A6F84",
"m  c #646D93",
"M  c #66708D",
"N  c #6D738C",
"B  c #667090",
"V  c #657199",
"C  c #6D7594",
"Z  c #6B759C",
"A  c #76798B",
"S  c #787B8A",
"D  c #717793",
"F  c #727890",
"G  c #737B9B",
"H  c #787F9D",
"J  c #6371A1",
"K  c #727DA1",
"L  c #757EA9",
"P  c #7D8193",
"I  c #7581AF",
"U  c #7C85A4",
"Y  c #7C86A9",
"T  c #7E88A1",
"R  c #7F88AC",
"E  c #7482B4",
"W  c #7985B5",
"Q  c #7C88B7",
"!  c #7E8ABB",
"~  c #7B8AC0",
"^  c #828595",
"/  c #80869C",
"(  c #868B9E",
")  c #898B97",
"_  c #8B8F9F",
"`  c #8F9097",
"'  c #929198",
"]  c #8187A4",
"[  c #848BA3",
"{  c #828AA9",
"}  c #828CB3",
"|  c #828DBB",
" . c #8C91A4",
".. c #8990A9",
"X. c #8F98AF",
"o. c #8790B3",
"O. c #8793BD",
"+. c #8A93B3",
"@. c #8992B9",
"#. c #9395A3",
"$. c #9698A5",
"%. c #959AAA",
"&. c #999CAA",
"*. c #949BB4",
"=. c #959DBC",
"-. c #999FBB",
";. c #9CA0AB",
":. c #9EA2B4",
">. c #9AA1B8",
",. c #A0A2A9",
"<. c #A3A6B5",
"1. c #A1A6BB",
"2. c #A6A9B5",
"3. c #A6ABBD",
"4. c #ADAEB7",
"5. c #ACAFBD",
"6. c #AFB0B9",
"7. c #B4B4B9",
"8. c #B9BABE",
"9. c #8692C3",
"0. c #8B96C2",
"q. c #8E99C2",
"w. c #8D99CC",
"e. c #929DC2",
"r. c #909CCB",
"t. c #96A0C5",
"y. c #95A0CC",
"u. c #9BA4C3",
"i. c #9CA7CD",
"p. c #9FA8CD",
"a. c #96A2D0",
"s. c #9BA6D2",
"d. c #9CA7D8",
"f. c #9EA9D4",
"g. c #9DA9DD",
"h. c #A4ABC3",
"j. c #A5AECF",
"k. c #A8ADC2",
"l. c #A8AFCF",
"z. c #A1ABD0",
"x. c #A0ACDF",
"c. c #AAB0C2",
"v. c #ADB4CD",
"b. c #A7B1D9",
"n. c #ABB3D4",
"m. c #ADB7DF",
"M. c #B2B6C5",
"N. c #B0B5CA",
"B. c #B4B9C5",
"V. c #B4B9CB",
"C. c #B8B9C2",
"Z. c #BABECB",
"A. c #B3BAD4",
"S. c #B2BADB",
"D. c #B8BEDA",
"F. c #ADB8E5",
"G. c #ADB9EA",
"H. c #B3BEEB",
"J. c #BCC0CC",
"K. c #BEC3D2",
"L. c #BCC2D8",
"P. c #BDC6E7",
"I. c #BAC4EB",
"U. c #C0C1C6",
"Y. c #C2C4CA",
"T. c #C9CACD",
"R. c #C0C3D1",
"E. c #C0C6DA",
"W. c #C7CAD3",
"Q. c #C4C9DA",
"!. c #CBCCD1",
"~. c #CACED8",
"^. c #CED1DD",
"/. c #D2D2D5",
"(. c #D2D4DA",
"). c #D6D8DC",
"_. c #D9DADC",
"`. c #C4CAE3",
"'. c #C5CCEB",
"]. c #C9CEE4",
"[. c #C8CFED",
"{. c #C5CDF0",
"}. c #CCD0E4",
"|. c #CFD4E9",
" X c #C7D0F2",
".X c #CBD2F1",
"XX c #CAD4F9",
"oX c #D2D5E3",
"OX c #D0D6ED",
"+X c #D4D9EB",
"@X c #D9DBE2",
"#X c #DADEEC",
"$X c #D5DCF4",
"%X c #D2DAF9",
"&X c #DADEF1",
"*X c #DEE0E4",
"=X c #DDE2F4",
"-X c #DDE3F8",
";X c #E1E2E4",
":X c #E2E4E9",
">X c #E7E8EC",
",X c #EBEBED",
"<X c #E3E6F1",
"1X c #E1E5F8",
"2X c #E7EAF3",
"3X c #E5E9F9",
"4X c #EBECF2",
"5X c #EAEDF9",
"6X c #EEF0F9",
"7X c #F3F4F5",
"8X c #F4F5F9",
"9X c #F7F8F6",
"0X c #F7F8F8",
"qX c #F8F8F6",
"wX c #FAFBFA",
"eX c None",
/* pixels */
"eXeXeXeXeXeXeXeXeXeXeXeXeXeXeXeX# eXeXeXeXeXeXeXeXeXeXeXeXeXeXeX",
"eXeXeXeXeXeXeXeXeXeXeXeXeXeXeXeXx 3 eXeXeXeXeXeXeXeXeXeXeXeXeXeX",
"eXeXeXeXeXeXeXeXeXeXeXeXeXeXeXZ r.E > eXeXeXeXeXeXeXeXeXeXeXeXeX",
"eXeXeXeXeXeXeXeXeXeXeXeXeXeXeX] d.g.m eX; q ^ k eXeXeXeXeXeXeXeX",
"eXeXeXeXeXeXeXeXeXeXeXeXeXeX&.[ 9.G.d.V 6 ,.@Xn.l eXeXeXeXeXeXeX",
"eXeXeXeXeXeXeXeXeXeXeXeXeXeX6./ W H. Xz.b $.>X&X@.eXeXeXeXeXeXeX",
"eXeXeXeXeXeXeXeXeXeXeXeXeX' Y.T Q I.5X&Xo...@X7XD.L eXeXeXeXeXeX",
"eXeXeXeXeXeXeXeXeXeXeXeX9 8.V.Y w. X8X5Xu.] !.0XOXq.2 eXeXeXeXeX",
"eXeXeXeXeXeXeXeXeXeXeXeX' !.*.! G.-XwX8Xj.b ,.;X4XOX} < eXeXeXeX",
"eXeXeXeXeXeXeXeXeXeXeX7 8.U.Y ! H.1XwX8Xn.k 0 ;.T.:XD.V eXeXeXeX",
"eXeXeXeXeXeXeXeXeXeXX ` (.5.K E x.%X8XwX`.C f Z D &.E.@.eXeXeXeX",
"eXeXeXeXeXeXeXeXeX. q Y.(.1.o.| w.P.7XwX#X{ V ! Z N k.q.eXeXeXeX",
"eXeXeXeX[ v.l.} : 5 8.,X_.1.v.N.} i.<XwX4Xh.C -.z.Z +.| a eXeXeX",
"eXeXeX/ ~.4X=XS.G A T.9X;Xk.D.oX] Q &XwX8XQ.H -.P.| | 9.d eXeXeX",
"eXeXeX3.4XwX7XY.+.D 6.,X,XM.L.4X$.Y +X7X0X4Xu.u.'.z.! 9.J eXeXeX",
"eXeXC Z.qXwXqX!.{ b #._.,XV.Q.4XN.=.|._.@X7XQ.v.].x.Y =.! eXeXeX",
"eXeX .(.4X9XwX*X_ z P T.:XJ.~.9X(.n.].C.V.<X,X@X+Xm.G :.x.W eXeX",
"eXeX:.*X_.:XwX,X2.A ^ T.,XJ.^.7X@Xn.].Y.k.].7X4X&XF.Z &.Q.y.eXeX",
"eX8 B._.B.~.wX9XT.>.P 8.4X^.*X5X@XV.].:Xk.N.4X8X1XI.E H Z.`.W eX",
"eXM T.J.*.Q.wXwX,XK.P ;.,X2X2X5X<X}.#X7X3.-.&X8X7X$Xa.Z &.Q.y.V ",
"= ..).;.} `.wXwXwX4X#.P T.9X4X-X6X7X7XqX$.] {.5XwX8X'.0.D _ k.e.",
"C c.~.[ ! '.8XwXwX6Xu.0 ;.,X-X%X5XwXwX,X) U {.5XwXwX|.w.K ( &.=.",
">.J.%.C i.=X8XwX:XQ.! 4 P T.-XXX3XwXwX/.A { .X7X0X*Xh.C l C m b ",
"T T 8 g R h.K.K.>.Y c - 8 >.*X.X1XwX7XU.n Z D.*X@X2.G l 3 3 p a ",
"u - - 4 j c C V x a y - * c X.p.[.>X*X>.l a K { T h s j f s 1 u ",
"- 1 s d j j g y y y y e @ * j Z +.>.X.P h a a d 1 - a h h h s s ",
"g d h j j g a y e e t - $ & 1 f j j j j j d d d u 3 g g g g d a ",
"j j j j g g y & + + % e & & p s h h j j j j g g s 1 u a a d a i ",
"3 - - t y y t = = * + % & & t d s g d d d d j h u - - i i i i y ",
"- 1 1 - - * - t d d - & e & t d d 3 - - - - p d u r y y y y t t ",
"1 s j f p t p f d g j g y y d j j f 1 - - - - 1 i y y r % % @ @ ",
"+ = 1 j j j f t y a j x j j x x x x j x d i - t i t % + @ @ @ @ "
};
