/* XPM */
static char *icewm_16x16[] = {
/* columns rows colors chars-per-pixel */
"16 16 184 2",
"   c black",
".  c #2F4178",
"X  c #32437A",
"o  c #344579",
"O  c #35467B",
"+  c #36477A",
"@  c #36487E",
"#  c #37497F",
"$  c #3C4C7A",
"%  c #3E4D7E",
"&  c #3F4E7C",
"*  c #3F4F7F",
"=  c #404E7A",
"-  c #41507C",
";  c #41507E",
":  c #43527F",
">  c #48537F",
",  c #4E567C",
"<  c #61667E",
"1  c #344780",
"2  c #3D4E80",
"3  c #3E4E80",
"4  c #3C4E84",
"5  c #3E5088",
"6  c #425283",
"7  c #405186",
"8  c #415286",
"9  c #445380",
"0  c #455481",
"q  c #465582",
"w  c #415289",
"e  c #41528A",
"r  c #45568C",
"t  c #485783",
"y  c #485686",
"u  c #485789",
"i  c #4A5983",
"p  c #4B5983",
"a  c #495886",
"s  c #4A5986",
"d  c #4B5A86",
"f  c #4C5A85",
"g  c #4E5D87",
"h  c #495888",
"j  c #4A598A",
"k  c #4C5B88",
"l  c #4D5C88",
"z  c #4E5C88",
"x  c #4E5C8A",
"c  c #4E5C8B",
"v  c #4F5E8A",
"b  c #505E85",
"n  c #515E86",
"m  c #505E88",
"M  c #546186",
"N  c #566084",
"B  c #536189",
"V  c #52608A",
"C  c #51608C",
"Z  c #52608D",
"A  c #52608E",
"S  c #53628D",
"D  c #56638A",
"F  c #54628C",
"G  c #56648C",
"H  c #576592",
"J  c #5A6692",
"K  c #676A82",
"L  c #626E97",
"P  c #6B7491",
"I  c #6A759E",
"U  c #737A96",
"Y  c #767C98",
"T  c #7C8091",
"R  c #7A8099",
"E  c #79829F",
"W  c #7A809E",
"Q  c #7D849D",
"!  c #7780A0",
"~  c #7D85A9",
"^  c #7C86AA",
"/  c #7D87AF",
"(  c #7A86B2",
")  c #7C87B1",
"_  c #82828C",
"`  c #80869C",
"'  c #84899E",
"]  c #8A8993",
"[  c #848BA6",
"{  c #838BAC",
"}  c #858CA9",
"|  c #888CA2",
" . c #828DB6",
".. c #8690B9",
"X. c #8690BA",
"o. c #8B93B2",
"O. c #8892B6",
"+. c #9094A3",
"@. c #9597A3",
"#. c #9397A8",
"$. c #969DB2",
"%. c #959CB6",
"&. c #9DA2B5",
"*. c #9AA0BB",
"=. c #9DA2B8",
"-. c #A1A4AE",
";. c #A4A6B0",
":. c #A0A6B8",
">. c #B7B7BC",
",. c #939DC6",
"<. c #909BCD",
"1. c #9CA5CC",
"2. c #98A4D4",
"3. c #A0A7C6",
"4. c #A2A9C2",
"5. c #A6ABC0",
"6. c #A4ADCF",
"7. c #A6AFCC",
"8. c #A3ACD1",
"9. c #A7AFD1",
"0. c #A3AED9",
"q. c #A9B0CC",
"w. c #AEB5D3",
"e. c #ACB5DA",
"r. c #B1B5C2",
"t. c #B2B8CC",
"y. c #B6BACB",
"u. c #B7BCCD",
"i. c #B8BCC8",
"p. c #BABECF",
"a. c #B5BCD0",
"s. c #B4BDDE",
"d. c #AFB9E2",
"f. c #BDC0CA",
"g. c #BAC0D6",
"h. c #C1C2C8",
"j. c #C1C4D0",
"k. c #C2C6D7",
"l. c #C4C6D2",
"z. c #C2C7DA",
"x. c #C4C7D8",
"c. c #C6C8D0",
"v. c #CED0DB",
"b. c #D2D3D5",
"n. c #D2D4DC",
"m. c #D6D8DC",
"M. c #DADBDC",
"N. c #C2CAE8",
"B. c #C7CFF1",
"V. c #D0D3E0",
"C. c #D3D6E2",
"Z. c #D1D6E4",
"A. c #D6DAE6",
"S. c #D5D9EA",
"D. c #D8DBE5",
"F. c #D9DCE4",
"G. c #DDDEE3",
"H. c #DBDEE9",
"J. c #D2DAF4",
"K. c #D8DDF4",
"L. c #D8DDF5",
"P. c #DFE1EB",
"I. c #DFE4F9",
"U. c #E0E0E1",
"Y. c #E1E3E8",
"T. c #E4E5E8",
"R. c #E5E6EC",
"E. c #E8EAEC",
"W. c #E9EAEE",
"Q. c #E4E8F2",
"!. c #E8EBF7",
"~. c #ECEDF0",
"^. c #ECEEF6",
"/. c #EDEFF6",
"(. c #EFF2FA",
"). c #F0F0F1",
"_. c #F5F6F5",
"`. c #F2F3F8",
"'. c #F4F5F8",
"]. c #F7F8FA",
"[. c #F8F8F7",
"{. c #FAFAF9",
"}. c gray98",
"|. c None",
/* pixels */
"|.|.|.|.|.|.|.|.> |.|.|.|.|.|.|.",
"|.|.|.|.|.|.|.Y <., |.K |.|.|.|.",
"|.|.|.|.|.|.|.#.2.1.T Z.|.|.|.|.",
"|.|.|.|.|.|.] =.0.!.o.T.9.|.|.|.",
"|.|.|.|.|.|.>. .B.].{ -.D.~ |.|.",
"|.|.|.|.|._ f.) d.].4.I R 3.|.|.",
"|.|.p.w.< M.j.g.O./.C.} ,...|.|.",
"|.&.[.G.W h.v.A.%.H.~.q.s...|.|.",
"|.i.E.).` ;.C.H.z.z.x.~.N.} 9.|.",
"|.l.y.{.l.@.R.Q.n.P.:./.L.) u.( ",
"W r.9.{.'.' b.Q.`._.| K.}.e.Q %.",
"$.P 7.D.t.J +.J.(.G.U S.M.! N G ",
"* i G H r 4 = ~ a.:.n L B g n t ",
"n V m 5 + 1 + p S S m c q d x u ",
"= * * * : @ 1 u d q : g * 5 e 4 ",
"$ g g y u m x m S d 6 * e @ X X "
};
