/* XPM */
static char * mozilla_32x32_xpm[] = {
"32 32 282 2",
"  	c None",
". 	c #808000",
"+ 	c #9B7A0B",
"@ 	c #9E7A0C",
"# 	c #4D4610",
"$ 	c #4E4E00",
"% 	c #2E2E00",
"& 	c #D86E23",
"* 	c #4B2E00",
"= 	c #3F2204",
"- 	c #767604",
"; 	c #826510",
"> 	c #6E1408",
", 	c #900303",
"' 	c #5D5C03",
") 	c #605A02",
"! 	c #A30000",
"~ 	c #665A04",
"{ 	c #FF6633",
"] 	c #947C08",
"^ 	c #4C240E",
"/ 	c #D40000",
"( 	c #A87810",
"_ 	c #520A00",
": 	c #FF0000",
"< 	c #49470D",
"[ 	c #980202",
"} 	c #72100F",
"| 	c #CE701F",
"1 	c #3A3A01",
"2 	c #D00000",
"3 	c #BD0202",
"4 	c #A50000",
"5 	c #7C0202",
"6 	c #383800",
"7 	c #737300",
"8 	c #4A290A",
"9 	c #BD0101",
"0 	c #250C0C",
"a 	c #650A0A",
"b 	c #560D0D",
"c 	c #412809",
"d 	c #807300",
"e 	c #725E14",
"f 	c #666609",
"g 	c #303004",
"h 	c #241700",
"i 	c #461700",
"j 	c #491700",
"k 	c #3F1200",
"l 	c #750404",
"m 	c #6B0505",
"n 	c #0D0404",
"o 	c #591111",
"p 	c #940000",
"q 	c #450303",
"r 	c #301200",
"s 	c #3D1700",
"t 	c #3E1802",
"u 	c #191903",
"v 	c #171700",
"w 	c #291700",
"x 	c #202004",
"y 	c #5D5D00",
"z 	c #62620B",
"A 	c #5D5D0C",
"B 	c #6C6C04",
"C 	c #402300",
"D 	c #B90000",
"E 	c #DC0000",
"F 	c #7D0000",
"G 	c #690808",
"H 	c #A50B0B",
"I 	c #800909",
"J 	c #C20000",
"K 	c #D80202",
"L 	c #230B0B",
"M 	c #E50000",
"N 	c #D70404",
"O 	c #230606",
"P 	c #170000",
"Q 	c #730000",
"R 	c #5D5D09",
"S 	c #885720",
"T 	c #A87212",
"U 	c #332B03",
"V 	c #730404",
"W 	c #E20000",
"X 	c #450000",
"Y 	c #E00000",
"Z 	c #F80000",
"` 	c #FE0000",
" .	c #CE0707",
"..	c #6B0000",
"+.	c #DA0000",
"@.	c #F10101",
"#.	c #E40000",
"$.	c #B10000",
"%.	c #5B0000",
"&.	c #070303",
"*.	c #780303",
"=.	c #780909",
"-.	c #362D05",
";.	c #7B7B00",
">.	c #DB6D25",
",.	c #B06B1B",
"'.	c #5A5A05",
").	c #550800",
"!.	c #D70000",
"~.	c #AB0303",
"{.	c #730C0C",
"].	c #F70000",
"^.	c #F40101",
"/.	c #920101",
"(.	c #250808",
"_.	c #0F0101",
":.	c #900101",
"<.	c #DB0303",
"[.	c #600A0A",
"}.	c #F00000",
"|.	c #DF0101",
"1.	c #0B0303",
"2.	c #090904",
"3.	c #37340E",
"4.	c #B16918",
"5.	c #5A5A0E",
"6.	c #8C610E",
"7.	c #211B09",
"8.	c #BD0000",
"9.	c #B60404",
"0.	c #5E1919",
"a.	c #910F0F",
"b.	c #3A1919",
"c.	c #281818",
"d.	c #670C0C",
"e.	c #750707",
"f.	c #DC0505",
"g.	c #E70000",
"h.	c #A60000",
"i.	c #7A0000",
"j.	c #F60000",
"k.	c #720C0C",
"l.	c #121201",
"m.	c #686800",
"n.	c #B37614",
"o.	c #9D6A15",
"p.	c #5B4700",
"q.	c #720601",
"r.	c #520707",
"s.	c #220C0C",
"t.	c #703A28",
"u.	c #5D1412",
"v.	c #551515",
"w.	c #9F0000",
"x.	c #960202",
"y.	c #770C0C",
"z.	c #E60000",
"A.	c #F30000",
"B.	c #B20101",
"C.	c #241002",
"D.	c #6B6B00",
"E.	c #885622",
"F.	c #554E02",
"G.	c #A20A0A",
"H.	c #C60303",
"I.	c #9B0F0F",
"J.	c #A70B0B",
"K.	c #C60000",
"L.	c #1E0000",
"M.	c #B80000",
"N.	c #331504",
"O.	c #6F6F06",
"P.	c #382500",
"Q.	c #CD1009",
"R.	c #FF1E0F",
"S.	c #FF160B",
"T.	c #FF130A",
"U.	c #FB1E0F",
"V.	c #650905",
"W.	c #750606",
"X.	c #E80000",
"Y.	c #442506",
"Z.	c #B07613",
"`.	c #BA7219",
" +	c #4D2B0E",
".+	c #FF2F18",
"++	c #FF6231",
"@+	c #FF582C",
"#+	c #FF562B",
"$+	c #FF391D",
"%+	c #9D1C0F",
"&+	c #3F0606",
"*+	c #6A1107",
"=+	c #5E5E00",
"-+	c #555508",
";+	c #750505",
">+	c #DE0000",
",+	c #C50909",
"'+	c #EB0000",
")+	c #380000",
"!+	c #C40000",
"~+	c #4D4D00",
"{+	c #DE6D26",
"]+	c #4F4F02",
"^+	c #F40000",
"/+	c #AD0101",
"(+	c #340F02",
"_+	c #2D1905",
":+	c #6C0600",
"<+	c #0C0000",
"[+	c #9D0303",
"}+	c #D90000",
"|+	c #CC0505",
"1+	c #514909",
"2+	c #997A0A",
"3+	c #7C7C00",
"4+	c #462B06",
"5+	c #D60404",
"6+	c #F20000",
"7+	c #740000",
"8+	c #484304",
"9+	c #707006",
"0+	c #4F4F00",
"a+	c #000000",
"b+	c #5E0A0A",
"c+	c #F10000",
"d+	c #4E0000",
"e+	c #787800",
"f+	c #887606",
"g+	c #610000",
"h+	c #FC0000",
"i+	c #DD0000",
"j+	c #45150E",
"k+	c #565000",
"l+	c #856810",
"m+	c #886019",
"n+	c #644C08",
"o+	c #330D06",
"p+	c #CB0000",
"q+	c #DF0000",
"r+	c #3E0606",
"s+	c #6A6A07",
"t+	c #8B7606",
"u+	c #970000",
"v+	c #B50000",
"w+	c #3C0D0A",
"x+	c #624E0A",
"y+	c #AD4B33",
"z+	c #E06C26",
"A+	c #73600E",
"B+	c #412900",
"C+	c #910000",
"D+	c #3B0707",
"E+	c #313108",
"F+	c #B87516",
"G+	c #2D2901",
"H+	c #560808",
"I+	c #422F00",
"J+	c #987B0A",
"K+	c #333303",
"L+	c #3C0D0D",
"M+	c #D56F22",
"N+	c #C36B1D",
"O+	c #303001",
"P+	c #4A4214",
"Q+	c #7C7602",
"R+	c #B26023",
"S+	c #65650A",
"T+	c #202007",
"U+	c #7A620F",
"V+	c #6F6B01",
"W+	c #D07020",
"X+	c #723830",
"Y+	c #6C6902",
"Z+	c #6E6B01",
"`+	c #DA6E24",
" @	c #837F01",
".@	c #8F3839",
"+@	c #8E383A",
"@@	c #977B09",
"#@	c #8F7D06",
"$@	c #454515",
"                                                                ",
"                                .                               ",
"                              . +                               ",
"                              @ #                               ",
"                              $ %                               ",
"                            & * = -                             ",
"                            ; > , '                             ",
"                            ) ! ! ~ {                           ",
"                          ] ^ / / ^ ]                           ",
"                          ( _ : : _ (                           ",
"                          < [ : : } <                           ",
"                        | 1 2 3 4 5 6                           ",
"                        7 8 9 0 a b c d                         ",
"  e f g h i j j j j j j k l m n o p q r s t u v w j i h x y z   ",
"    A B C D : : : : : E F G H I J K L F M N O P Q : D C R S     ",
"        T U V W : : W X Y Z `  ...+.@.#.$.M %.&.*.=.-.;.>.      ",
"          ,.'.).!.: ~.{.].^./.(._.:.: <.[.}.|.1.2.3.4.          ",
"            5.6.7.8.9.0.a.b.c.d.e.f.g.h.i.j.k.l.m.n.            ",
"                o.p.q.r.s.t.u.v.w.x.y.z.A.B.C.D.                ",
"                  E.F.G.H.I.J.K.Q L.M.: : N.O.                  ",
"                    P.Q.R.R.S.T.U.V.W.X.: Y.Z.                  ",
"                  `. +.+++++@+#+$+%+&+z.: *+=+                  ",
"                  -+;+: : : : >+,+'+)+!+: J ~+                  ",
"                {+]+B.: : ^+/+(+_+:+<+[+}+|+1+2+                ",
"                3+4+5+: 6+7+8+9+. 0+a+b+: c+d+e+                ",
"                f+g+h+i+j+k+l+    m+n+o+p+q+r+s+                ",
"                t+u+v+w+x+y+        z+A+B+C+D+E+                ",
"              F+G+H+I+J+                . K+L+G+M+              ",
"              N+O+P+Q+                    R+S+T+U+              ",
"              D.V+W+                        X+Y+Z+              ",
"            `+ @.@                            +@@@#@            ",
"            W+                                    $@            "};
