/* XPM */
static char * mutt_16x16_xpm[] = {
"16 16 151 2",
"  	c None",
". 	c #80CEA9",
"+ 	c #88D2AF",
"@ 	c #88D2B1",
"# 	c #8AD2B3",
"$ 	c #8CD2B3",
"% 	c #8CD2B5",
"& c #5E8A75",
"* 	c #8EC4AD",
"= 	c #90D2B5",
"- 	c #90D2B7",
"; 	c #77C6A0",
"> c #7BCEA7",
", 	c #7BCEA9",
"' 	c #7DCEA9",
") 	c #7DCEAB",
"! 	c #7BCCA9",
"~ 	c #5C967E",
"{ 	c #636363",
"] 	c #82A798",
"^ 	c #7DCAAB",
"/ 	c #82CEAD",
"( 	c #84CEAF",
"_ 	c #7BCEA5",
": 	c #5C9A7E",
"< c #7BCAA9",
"[ 	c #77BD9E",
"} 	c #C2C263",
"| 	c #3A5C4C",
"1 	c #5A947C",
"2 	c #406756",
"3 	c #7BCCA7",
"4 	c #7BC8A5",
"5 	c #5E8674",
"6 	c #5C967C",
"7 	c #7DCCA7",
"8 	c #77C0A1",
"9 	c #567869",
"0 	c #848484",
"a 	c #B3B384",
"b 	c #1B2923",
"c 	c #525252",
"d 	c #80A796",
"e 	c #82CCAD",
"f 	c #79C8A3",
"g 	c #71C09C",
"h 	c #5A8271",
"i 	c #79C8A5",
"j 	c #79C8A7",
"k 	c #6DB190",
"l 	c #424242",
"m 	c #C6C6C6",
"n 	c #949494",
"o 	c #4A5852",
"p 	c #71B396",
"q 	c #7DC8A9",
"r 	c #75C4A0",
"s 	c #67AD8C",
"t 	c #3E5048",
"u 	c #7BCAA7",
"v 	c #73C09E",
"w 	c #547365",
"x 	c #485650",
"y 	c #38564A",
"z 	c #5E967E",
"A 	c #73C29C",
"B 	c #6FB796",
"C 	c #5A9679",
"D 	c #3C6150",
"E 	c #3E6552",
"F 	c #38584A",
"G 	c #824242",
"H 	c #ABAFB1",
"I 	c #F1B1F1",
"J 	c #9C63B3",
"K 	c #73C29E",
"L 	c #69B190",
"M 	c #528A71",
"N 	c #525D58",
"O 	c #B6B6B6",
"P 	c #502121",
"Q 	c #5E0000",
"R 	c #747474",
"S 	c #BF2121",
"T 	c #A36363",
"U 	c #9A9FA1",
"V 	c #5E005E",
"W 	c #3C5E50",
"X 	c #75C49E",
"Y 	c #6BB594",
"Z 	c #52886F",
"` 	c #525D56",
" .	c #612121",
"..	c #4E565A",
"+.	c #3A584C",
"@.	c #6FB594",
"#.	c #528A6F",
"$.	c #A5A5A5",
"%.	c #AF2121",
"&.	c #2F0000",
"*.	c #484C4E",
"=.	c #2F3834",
"-.	c #4C7C67",
";.	c #75C29E",
">.	c #6DB794",
",.	c #1F3227",
"'.	c #254035",
").	c #315042",
"!.	c #487360",
"~.	c #67A48A",
"{.	c #6BB392",
"].	c #4E846D",
"^.	c #5E676B",
"/.	c #212121",
"(.	c #37584A",
"_.	c #406658",
":.	c #4A7562",
"<.	c #5A907B",
"[.	c #73B198",
"}.	c #73C49E",
"|.	c #5C8873",
"1.	c #080C0A",
"2.	c #528871",
"3.	c #629C84",
"4.	c #69A68C",
"5.	c #73B598",
"6.	c #79C4A5",
"7.	c #75C09C",
"8.	c #69AF90",
"9.	c #2B463A",
"0.	c #90A39A",
"a.	c #7BC4A7",
"b.	c #80CAA9",
"c.	c #73AD92",
"d.	c #749284",
"e.	c #34403A",
"f.	c #8A8E90",
"g.	c #5E9E82",
"h.	c #587E6B",
"i.	c #586961",
"j.	c #101A16",
"k.	c #0E1814",
"l.	c #0C1814",
"m.	c #2F3A36",
"n.	c #101A14",
"o.	c #14211A",
"p.	c #3C4E46",
"q.	c #486156",
"r.	c #6DAF92",
"s.	c #75BE9E",
"t.	c #78BEA0",
". + + + @ @ # $ # # # % & * = - ",
"; > , > , ' ' ) . ! ~ { ] ^ / ( ",
"; > _ , : . , ) < [ { } | 1 2 ( ",
"; 3 4 5 6 ! ' 7 8 9 0 a b c d e ",
"; f g { h i ' j k l m m n o p q ",
"r g s { t ; u v w 0 m m n x y z ",
"A B C { c D E F G H m m m { I J ",
"K L M N O P Q R S T U m m n V W ",
"X Y Z ` H m m m O S  ...H m c +.",
"r @.#.l $.m m m m O %.&.l *.=.-.",
";.>.#.l U m H H m m R ,.'.).!.~.",
"K {.].=.O ^.{ { m ^./.(._.:.<.[.",
"}.{.|.R 0 l /.1.U l c 2.3.4.5.6.",
"7.8.9.$.n { l /.$.n 0 l 0.a.b./ ",
"c.d.e.f.H m l l f.H m l { q / ( ",
"g.h.i.j.k.l.m.m.k.n.o.p.q.r.s.t."};
