/* XPM */
static char * mutt_32x32_xpm[] = {
"32 32 75 1",
" 	c None",
".	c #84D6AD",
"+	c #8CD6B5",
"@	c #9CD6BD",
"#	c #94D6BD",
"$	c #73BD9C",
"%	c #7BCEA5",
"& c #7BCEAD",
"*	c #84CEAD",
"=	c #294231",
"-	c #213929",
";	c #84948C",
"> c #84CEB5",
",	c #7BC6AD",
"'	c #000000",
")	c #7BC6A5",
"!	c #C6C6C6",
"~	c #848484",
"{	c #84C6AD",
"]	c #7BBDA5",
"^	c #BDBD00",
"/	c #73B594",
"(	c #6BA58C",
"_	c #6BB594",
":	c #63A58C",
"< c #73C6A5",
"[	c #73C69C",
"}	c #6BAD8C",
"|	c #73AD94",
"1	c #73BDA5",
"2	c #63A584",
"3	c #639C84",
"4	c #73B59C",
"5	c #73CEA5",
"6	c #5A947B",
"7	c #63AD8C",
"8	c #FFFFFF",
"9	c #BD00BD",
"0	c #5A9C7B",
"a	c #528C6B",
"b	c #FF0000",
"c	c #5A6B73",
"d	c #FF00FF",
"e	c #4A846B",
"f	c #BD0000",
"g	c #6BBD9C",
"h	c #4A7B63",
"i	c #426B5A",
"j	c #426B52",
"k	c #6BAD94",
"l	c #395A4A",
"m	c #213931",
"n	c #294239",
"o	c #315242",
"p	c #426352",
"q	c #4A7B6B",
"r	c #294A39",
"s	c #52846B",
"t	c #427363",
"u	c #314A42",
"v	c #395A52",
"w	c #4A6B5A",
"x	c #52736B",
"y	c #5A9473",
"z	c #396352",
"A	c #4A7363",
"B	c #528C73",
"C	c #42735A",
"D	c #5A8C73",
"E	c #529473",
"F	c #213129",
"G	c #5A9C84",
"H	c #6BBD94",
"I	c #6BB58C",
"J	c #183129",
".++@+@@+@+@+@+@#+@+##@#@#@@#@@@@",
"$%%%%%%%%&%&*&*%*&**&%*&=-;****>",
"$%&%%&%&&%*%%%&*%*&&%,''*,&&**>*",
"$%%%%&%%&%%&&*%&*%%))'!!~~){&***",
"$%%&%%&&%&*%&%*%&&)]'!^!'$)&&**>",
"$%%%%%%%%'%*%&&&))$/'!^!'/$'''**",
"$%&%))%)'%&%%*%%)]/~'!^!'('~~&**",
"$%%)%)~')))&%&*))_:'~!~!'''!~),*",
"$%%)<['!~<))&%&)$}~'!!!!!!!'|$)&",
"$%)[$_'!'$<%%*%1/2'~!!!!'!'3}4]*",
"$5<$_}'!'$[)&))$}~'!!!!!'!'6(4))",
"$)[_72'!'~$%%)<_3'~!!!!!!!!''''*",
"/<$_36'!~'$)%)$(~'!!!!!!!!!'889,",
"[[$}0a'!!'''''''b~c!!!!!!!!'!d9)",
"$</76e~~!~'fff'~fb~~!!!!!!!'99']",
"$[g26hi'!!~'''~!~fb~c~!!!!!!'''$",
"$%$76hj'!!!!!!!!!~fb'~cc!!!!'~'4",
"$[$76h~~c!!!!!!!!!~fb''~c!!!'!'|",
"$%$}6h'~~!!!!!!!!!!~ff''~~!c'~'k",
"$<$}0h'~~!!!!!!!!!!!~ff'''''l'6}",
"/)[}0h'~c!!!!!!!!!!!!~'=mmnopq6k",
"$5$76h'~~!!!!c!c!!!!~'=nnrolis3/",
"$</76t~'~!!c'~~~!!!c''uolvpwx6(4",
"$[$7ytl'!!c'~~~'!!c'~'zptAqB6:|]",
"$5/76C~~!~''''''c!'~~'AsD633(/$)",
"$[g}E~'!!'~~~'F'~!'~!'BG(kk/$]),",
"/)/:B'~!!'''~'''~!!''~~'~$])))**",
"$[g2D'~!!!!!'~~'~!!!!!'~!~),**&*",
"H$~3~'c!!!!!'~~'c!!!!!'~!')*&***",
"_~2~h'~~!c!!'~~'~~!c!!'~!'),***>",
"Ik~a~~''''''~''~''''''~''~$)*&**",
"BBhiormFJFJJFJFJFJF-=nozAB33}kkk"};
