/* XPM */
static char * desktop_xpm[] = {
"20 20 2 1",
" 	c None",
".	c #DFDBD2",
"                    ",
"                    ",
"                    ",
"                    ",
"                    ",
"                    ",
"                    ",
"                    ",
"                    ",
"                    ",
"                    ",
"                    ",
"                    ",
"                    ",
"                    ",
"                    ",
" ..........         ",
" ..........         ",
"                    ",
"                    "};
