/* XPM */
static char * desktop_xpm[] = {
"16 16 2 1",
" 	c None",
".	c #70767C",
"                ",
"                ",
"                ",
"                ",
"                ",
"                ",
"                ",
"                ",
"                ",
"                ",
"                ",
"                ",
" ............   ",
" ............   ",
"                ",
"                "};
