/* XPM */
static char * desktop_old_xpm[] = {
"16 16 6 1",
" 	c None",
".	c #6C7A89",
"+	c #6C7989",
"@	c #6C7A88",
"#	c #6C7B88",
"$	c #6D7B89",
"                ",
"                ",
"  ............  ",
"  ............  ",
"  ............  ",
"  .          .  ",
"  .    ++    .  ",
"  .   @  .   .  ",
"  .     @.   .  ",
"  .    #$    .  ",
"  .          .  ",
"  .    .     .  ",
"  .          .  ",
"  ............  ",
"                ",
"                "};
