/* XPM */
static char * start_xpm[] = {
"45 32 4 1",
" 	c #303744",
".	c #313946",
"+	c #6F8FB6",
"@	c #303745",
"                                             ",
"                                             ",
"                                             ",
"                                             ",
".                                            ",
".....                                       .",
".......      ++++++++    ++++++++         ...",
".........    ++++++++.   ++++++++        ....",
"..........   ++++++++... ++++++++      ......",
"...........  ++++++++....++++++++     .......",
".............++++++++....++++++++    ........",
".............++++++++....++++++++   .........",
".............++++++++....++++++++  ..........",
".............++++++++....++++++++ ...........",
".................    .........  @............",
"    ..............  .........................",
"     ........................................",
"     ........................................",
"      .......++++++++....++++++++............",
"     ........++++++++....++++++++............",
"     ........++++++++....++++++++............",
"             ++++++++....++++++++............",
"             ++++++++....++++++++..         @",
"             ++++++++....++++++++            ",
"             ++++++++....++++++++            ",
"             ++++++++ ...++++++++            ",
"                       ....                  ",
"                       ...                   ",
"                        ..                   ",
"                                             ",
"                                             ",
"                                             "};
