/* XPM */
static char * taskbuttonactive_xpm[] = {
"1 27 4 1",
" 	c #18181D",
".	c #2F2F33",
"+	c #262A31",
"@	c #6E8FB6",
" ",
".",
"+",
"+",
"+",
"+",
"+",
"+",
"+",
"+",
"+",
"+",
"+",
"+",
"+",
"+",
"+",
"+",
"+",
"+",
"+",
"+",
"+",
"+",
"+",
"@",
"@"};
