/* XPM */
static char * windows_xpm[] = {
"17 17 2 1",
" 	c None",
".	c #70767C",
"                 ",
"                 ",
"  ...............",
"  ...............",
"  ..           ..",
"  ..           ..",
"  ..           ..",
"  ..           ..",
"  ..       ... ..",
"  ..       ... ..",
"  ..       ... ..",
"  ..           ..",
"  ..           ..",
"  ...............",
"  ...............",
"                 ",
"                 "};
