#define max_width 8
#define max_height 8
static unsigned char max_bits[] = {
 0x18, 0x3C, 0x66, 0xC3, 0xC3, 0x66, 0x3C, 0x18 };
