#define shade_width 10
#define shade_height 10
static unsigned char shade_bits[] = {
 0x00, 0x00, 0x00, 0x00, 0x30, 0x00, 0x78, 0x00, 0xCC, 0x00, 0x86, 0x01,
 0x03, 0x03, 0x01, 0x02, 0x00, 0x00, 0x00, 0x00 };
