#define shade_toggled_width 10
#define shade_toggled_height 10
static unsigned char shade_toggled_bits[] = {
 0x00, 0x00, 0x00, 0x00, 0x01, 0x02, 0x03, 0x03, 0x86, 0x01, 0xCC, 0x00,
 0x78, 0x00, 0x30, 0x00, 0x00, 0x00, 0x00, 0x00 };
