/* XPM */
static char * sizeR_xpm[] = {
"16 21 3 1",
" 	c None",
".	c #6E8FB6",
"+	c #1B1F26",
"           .... ",
"           .++.+",
"           .++.+",
"           .++.+",
"           .++.+",
"   ..      .++.+",
"   .+..    .++.+",
"    .++..  .++.+",
" ....++++...++.+",
".++++++++++..+.+",
".++++++++++..+.+",
" ....++++..+++.+",
"  ++.++..+++++.+",
"   .+..+++ .++.+",
"   ..+++   .++.+",
"    ++     .++.+",
"           .++.+",
"           .++.+",
"           .++.+",
"           ....+",
"            ++++"};
