/* XPM */
static char * sizeB_xpm[] = {
"21 16 3 1",
" 	c None",
".	c #6E8FB6",
"+	c #1B1F26",
"         ..          ",
"        .++.         ",
"        .++.+        ",
"     .. .++.+..      ",
"     .+..++..+.+     ",
"      .++++++.++     ",
"      .++++++.+      ",
"       .++++.++      ",
"       .++++.+       ",
"        .++.++       ",
"        .++.+        ",
"...........++....... ",
".++++++++..++++++++.+",
".++++++++++++++++++.+",
"....................+",
" ++++++++++++++++++++"};
