/* XPM */
static char * closeO_xpm[] = {
"24 54 37 1",
" 	c #2A313C",
".	c #2A303C",
"+	c #822430",
"@	c #CA343D",
"#	c #E43B43",
"$	c #E43C43",
"%	c #C9343D",
"&	c #812430",
"*	c #5C222D",
"=	c #E33B42",
"-	c #EE5353",
";	c #E23C43",
">	c #5B222C",
",	c #EE4F51",
"'	c #EE4C4E",
")	c #D94748",
"!	c #C13F40",
"~	c #DA4849",
"{	c #E23B42",
"]	c #2B2F3A",
"^	c #28080B",
"/	c #B1393A",
"(	c #B2393A",
"_	c #802530",
":	c #B53B3C",
"<	c #AF3839",
"[	c #B43A3B",
"}	c #C8343D",
"|	c #E43C44",
"1	c #E33B43",
"2	c #27080B",
"3	c #7F2531",
"4	c #E13B42",
"5	c #EE4C4F",
"6	c #59222D",
"7	c #C8333D",
"8	c #E33C43",
"                        ",
"........................",
"........................",
"........................",
"........................",
"........................",
".........+@#$%&.........",
".......*=------;>.......",
"......*,--------'>......",
"......=-)!----!~-{].....",
".....+--!^/--(^!--_.....",
".....@---:^<[^<---}.....",
".....|----(^^(----1.....",
".....=----(22(----;.....",
".....@---[^<[^<---}.....",
".....&--!2/--(^!--3.....",
"......;-~!----!~-4......",
"......>'--------56......",
".......>;------46.......",
"........]_78873.........",
"........................",
"........................",
"........................",
"........................",
"........................",
"........................",
"........................",
"                        ",
"........................",
"........................",
"........................",
"........................",
"........................",
".........+@#$%&.........",
".......*=------;>.......",
"......*,--------'>......",
"......=-)!----!~-{].....",
".....+--!^/--(^!--_.....",
".....@---:^<[^<---}.....",
".....|----(^^(----1.....",
".....=----(22(----;.....",
".....@---[^<[^<---}.....",
".....&--!2/--(^!--3.....",
"......;-~!----!~-4......",
"......>'--------56......",
".......>;------46.......",
"........]_78873.........",
"........................",
"........................",
"........................",
"........................",
"........................",
"........................",
"........................"};
