/* XPM */
static char * maximizeI_xpm[] = {
"24 54 23 1",
" 	c #2B313C",
".	c #2A303C",
"+	c #1E232B",
"@	c #161A1E",
"#	c #191F22",
"$	c #17191B",
"%	c #2C3038",
"&	c #6E8FB6",
"*	c #2B2E38",
"=	c #14171B",
"-	c #20222A",
";	c #20242A",
">	c #14171D",
",	c #2B2E39",
"'	c #161820",
")	c #16181C",
"!	c #191C25",
"~	c #191B22",
"{	c #16161C",
"]	c #2B3039",
"^	c #14161D",
"/	c #16171A",
"(	c #191C1F",
"                        ",
"                        ",
"........................",
"........................",
"..........+@#@+.........",
"........$%&&&&&*=.......",
".......-&&&&&&&&&;......",
"......-&&&&&&&&&&&;.....",
".....$&&&&&&&&&&&&&>....",
".....%&&&&&&&&&&&&&,....",
"....+&&&&&&&&&&&&&&&....",
"....'&&&&&&&&&&&&&&&)...",
"....!&&&&&&&&&&&&&&&~...",
"....'&&&&&&&&&&&&&&&{...",
"....+&&&&&&&&&&&&&&&....",
".....*&&&&&&&&&&&&&]....",
".....=&&&&&&&&&&&&&^....",
"......;&&&&&&&&&&&-.....",
".......;&&&&&&&&&-......",
"........>,&&&&&]^.......",
".........../(/..........",
"........................",
"........................",
"........................",
"........................",
"........................",
"                        ",
"........................",
"                        ",
"........................",
"........................",
"..........+@#@+.........",
"........$%&&&&&*=.......",
".......-&&&&&&&&&;......",
"......-&&&&&&&&&&&;.....",
".....$&&&&&&&&&&&&&>....",
".....%&&&&&&&&&&&&&,....",
"....+&&&&&&&&&&&&&&&....",
"....'&&&&&&&&&&&&&&&)...",
"....!&&&&&&&&&&&&&&&~...",
"....'&&&&&&&&&&&&&&&{...",
"....+&&&&&&&&&&&&&&&....",
".....*&&&&&&&&&&&&&]....",
".....=&&&&&&&&&&&&&^....",
"......;&&&&&&&&&&&-.....",
".......;&&&&&&&&&-......",
"........>,&&&&&]^.......",
".........../(/..........",
"........................",
"........................",
"........................",
"........................",
"........................",
"........................"};
