/* XPM */
static char * maximizeA_xpm[] = {
"24 54 45 1",
" 	c #2A313C",
".	c #2A303C",
"+	c #389455",
"@	c #49DD70",
"#	c #7AD083",
"$	c #49DC70",
"%	c #389355",
"&	c #2F6944",
"*	c #2E6844",
"=	c #399354",
"-	c #4ADD70",
";	c #389254",
">	c #2E6644",
",	c #1B7827",
"'	c #26BD3C",
")	c #7AD082",
"!	c #26BC3C",
"~	c #1B7726",
"{	c #1A5625",
"]	c #2FD647",
"^	c #2ED648",
"/	c #3AE65A",
"(	c #3AE55A",
"_	c #34AF50",
":	c #227B32",
"<	c #237E34",
"[	c #44DC69",
"}	c #2ED547",
"|	c #165B20",
"1	c #032702",
"2	c #248136",
"3	c #1B7725",
"4	c #26BD3B",
"5	c #34AD4F",
"6	c #237D33",
"7	c #14571E",
"8	c #175E21",
"9	c #15581E",
"0	c #35B051",
"a	c #27BC3B",
"b	c #34AC4F",
"c	c #2ED446",
"d	c #3AE559",
"e	c #1A5426",
"f	c #27BC3C",
"                        ",
"........................",
"........................",
"........................",
"........................",
"........................",
"........ +@##$% ........",
".......&########*.......",
"......&##########*......",
"..... ############ .....",
".....+############=.....",
".....@############-.....",
".....##############.....",
".....##############.....",
".....@############-.....",
".....%############;.....",
"..... ############ .....",
"......*##########>......",
".......*########>.......",
"........ =$##$; ........",
"........................",
"........................",
"........................",
"........................",
"........................",
"........................",
"........................",
"                        ",
"........................",
"........................",
"........................",
"........................",
"........................",
"........ ,'))!~ ........",
".......{]))))))^{.......",
"......{/))))))))({......",
"..... ])))_:::<[)} .....",
".....,)))))|1112))3.....",
".....4))5)))|116))).....",
".....)))67)))816))).....",
".....)))617)))86))).....",
".....4))6119)))0))a.....",
".....~))21119)))))~.....",
"..... ))[<:::b)))c .....",
"......{)))))))))de......",
".......{)))))))ce.......",
"........ 3)))f~ ........",
"........................",
"........................",
"........................",
"........................",
"........................",
"........................",
"........................"};
