/* XPM */
static char * maximizeA3_xpm[] = {
"24 54 48 1",
" 	c #2A313C",
".	c #2A303C",
"+	c #263136",
"@	c #389455",
"#	c #49DD70",
"$	c #7AD083",
"%	c #49DC70",
"&	c #389355",
"*	c #2F6944",
"=	c #2E6844",
"-	c #283138",
";	c #399354",
">	c #4ADD70",
",	c #389254",
"'	c #273138",
")	c #2E6644",
"!	c #1B7827",
"~	c #26BD3C",
"{	c #7AD082",
"]	c #26BC3C",
"^	c #1B7726",
"/	c #1A5625",
"(	c #2FD647",
"_	c #2ED648",
":	c #3AE65A",
"<	c #3AE55A",
"[	c #34AF50",
"}	c #227B32",
"|	c #237E34",
"1	c #44DC69",
"2	c #2ED547",
"3	c #165B20",
"4	c #032702",
"5	c #248136",
"6	c #1B7725",
"7	c #26BD3B",
"8	c #34AD4F",
"9	c #237D33",
"0	c #14571E",
"a	c #175E21",
"b	c #15581E",
"c	c #35B051",
"d	c #27BC3B",
"e	c #34AC4F",
"f	c #2ED446",
"g	c #3AE559",
"h	c #1A5426",
"i	c #27BC3C",
"                        ",
"........................",
"........................",
"........................",
"........................",
"........................",
"........+@#$$%&+........",
".......*$$$$$$$$=.......",
"......*$$$$$$$$$$=......",
".....+$$$$$$$$$$$$-.....",
".....@$$$$$$$$$$$$;.....",
".....#$$$$$$$$$$$$>.....",
".....$$$$$$$$$$$$$$.....",
".....$$$$$$$$$$$$$$.....",
".....#$$$$$$$$$$$$>.....",
".....&$$$$$$$$$$$$,.....",
".....+$$$$$$$$$$$$'.....",
"......=$$$$$$$$$$)......",
".......=$$$$$$$$).......",
"........-;%$$%,'........",
"........................",
"........................",
"........................",
"........................",
"........................",
"........................",
"........................",
"                        ",
"........................",
"........................",
"........................",
"........................",
"........................",
"........ !~{{]^ ........",
"......./({{{{{{_/.......",
"....../:{{{{{{{{</......",
"..... ({{{[}}}|1{2 .....",
".....!{{{{{34445{{6.....",
".....7{{8{{{3449{{{.....",
".....{{{90{{{a49{{{.....",
".....{{{940{{{a9{{{.....",
".....7{{944b{{{c{{d.....",
".....^{{5444b{{{{{^.....",
"..... {{1|}}}e{{{f .....",
"....../{{{{{{{{{gh......",
"......./{{{{{{{fh.......",
"........ 6{{{i^ ........",
"........................",
"........................",
"........................",
"........................",
"........................",
"........................",
"........................"};
