/* XPM */
static char * minimizeA_xpm[] = {
"24 54 58 1",
" 	c #2A313C",
".	c #2A303C",
"+	c #2D3137",
"@	c #8F945D",
"#	c #D6DD7F",
"$	c #EDF58A",
"%	c #D5DC7E",
"&	c #8E935D",
"*	c #65694B",
"=	c #ECF489",
"-	c #F1FA8C",
";	c #64684A",
">	c #F1FA8B",
",	c #EBF388",
"'	c #2D3138",
")	c #8E935C",
"!	c #D7DD7F",
"~	c #D5DD7F",
"{	c #ECF589",
"]	c #ECF48A",
"^	c #EBF389",
"/	c #8D925D",
"(	c #EAF388",
"_	c #2C3138",
":	c #F0FA8B",
"<	c #62664A",
"[	c #D4DC7F",
"}	c #2B303A",
"|	c #846720",
"1	c #C9A939",
"2	c #E1C448",
"3	c #E0C447",
"4	c #C8A939",
"5	c #836620",
"6	c #5E4B21",
"7	c #E0C448",
"8	c #F0F484",
"9	c #DFC447",
"0	c #5D4A21",
"a	c #E8D960",
"b	c #E8D95F",
"c	c #DFC346",
"d	c #826620",
"e	c #C9A938",
"f	c #C7A838",
"g	c #E0C549",
"h	c #B2B15F",
"i	c #80773C",
"j	c #B3B25F",
"k	c #DFC448",
"l	c #DFC347",
"m	c #C9A838",
"n	c #EFF383",
"o	c #816521",
"p	c #DEC246",
"q	c #E8D85E",
"r	c #5B4922",
"s	c #C7A839",
"                        ",
"........................",
"........................",
"........................",
"........................",
"........................",
"........+@#$$%&+........",
".......*=------=;.......",
"......*--------->;......",
".....+=----------,'.....",
".....@------------).....",
".....!------------~.....",
".....{------------].....",
".....=------------^.....",
".....#------------~.....",
".....&------------/.....",
".....+=----------(_.....",
"......;>--------:<......",
".......;^------(<.......",
"........')[{{[/_........",
"........................",
"........................",
"........................",
"........................",
"........................",
"........................",
"........................",
"                        ",
"........................",
"........................",
"........................",
"........................",
"........................",
"........}|12345}........",
".......678----890.......",
"......6a--------b0......",
".....}7----------c}.....",
".....|8----------8d.....",
".....e------------f.....",
".....g-hiiiiiiiij-k.....",
".....7-jiiiiiiiij-l.....",
".....m------------f.....",
".....58----------no.....",
".....}9----------p .....",
"......0b--------qr......",
".......0l8----npr.......",
"........}ds33so ........",
"........................",
"........................",
"........................",
"........................",
"........................",
"........................",
"........................"};
