/* XPM */
static char * minimizeO_xpm[] = {
"24 54 34 1",
" 	c #2A313C",
".	c #2A303C",
"+	c #2B303A",
"@	c #846720",
"#	c #C9A939",
"$	c #E1C448",
"%	c #E0C447",
"&	c #C8A939",
"*	c #836620",
"=	c #5E4B21",
"-	c #E0C448",
";	c #F0F484",
">	c #F1FA8C",
",	c #DFC447",
"'	c #5D4A21",
")	c #E8D960",
"!	c #E8D95F",
"~	c #DFC346",
"{	c #826620",
"]	c #C9A938",
"^	c #C7A838",
"/	c #E0C549",
"(	c #B2B15F",
"_	c #80773C",
":	c #B3B25F",
"<	c #DFC448",
"[	c #DFC347",
"}	c #C9A838",
"|	c #EFF383",
"1	c #816521",
"2	c #DEC246",
"3	c #E8D85E",
"4	c #5B4922",
"5	c #C7A839",
"                        ",
"........................",
"........................",
"........................",
"........................",
"........................",
"........+@#$%&*+........",
".......=-;>>>>;,'.......",
"......=)>>>>>>>>!'......",
".....+->>>>>>>>>>~+.....",
".....@;>>>>>>>>>>;{.....",
".....]>>>>>>>>>>>>^.....",
"...../>(________:><.....",
".....->:________:>[.....",
".....}>>>>>>>>>>>>^.....",
".....*;>>>>>>>>>>|1.....",
".....+,>>>>>>>>>>2 .....",
"......'!>>>>>>>>34......",
".......'[;>>>>|24.......",
"........+{5%%51 ........",
"........................",
"........................",
"........................",
"........................",
"........................",
"........................",
"........................",
"                        ",
"........................",
"........................",
"........................",
"........................",
"........................",
"........+@#$%&*+........",
".......=-;>>>>;,'.......",
"......=)>>>>>>>>!'......",
".....+->>>>>>>>>>~+.....",
".....@;>>>>>>>>>>;{.....",
".....]>>>>>>>>>>>>^.....",
"...../>(________:><.....",
".....->:________:>[.....",
".....}>>>>>>>>>>>>^.....",
".....*;>>>>>>>>>>|1.....",
".....+,>>>>>>>>>>2 .....",
"......'!>>>>>>>>34......",
".......'[;>>>>|24.......",
"........+{5%%51 ........",
"........................",
"........................",
"........................",
"........................",
"........................",
"........................",
"........................"};
