/* XPM */
static char * restoreA_xpm[] = {
"24 54 44 1",
" 	c #2A313C",
".	c #389455",
"+	c #49DD70",
"@	c #7AD083",
"#	c #49DC70",
"$	c #389355",
"%	c #2F6944",
"&	c #2E6844",
"*	c #399354",
"=	c #4ADD70",
"-	c #389254",
";	c #2E6644",
">	c #1B7827",
",	c #26BD3C",
"'	c #7AD082",
")	c #26BC3C",
"!	c #1B7726",
"~	c #1A5625",
"{	c #2FD647",
"]	c #2ED648",
"^	c #3AE65A",
"/	c #3AE55A",
"(	c #34AF50",
"_	c #227B32",
":	c #237E34",
"<	c #44DC69",
"[	c #2ED547",
"}	c #165B20",
"|	c #032702",
"1	c #248136",
"2	c #1B7725",
"3	c #26BD3B",
"4	c #34AD4F",
"5	c #237D33",
"6	c #14571E",
"7	c #175E21",
"8	c #15581E",
"9	c #35B051",
"0	c #27BC3B",
"a	c #34AC4F",
"b	c #2ED446",
"c	c #3AE559",
"d	c #1A5426",
"e	c #27BC3C",
"                        ",
"                        ",
"                        ",
"                        ",
"                        ",
"                        ",
"         .+@@#$         ",
"       %@@@@@@@@&       ",
"      %@@@@@@@@@@&      ",
"      @@@@@@@@@@@@      ",
"     .@@@@@@@@@@@@*     ",
"     +@@@@@@@@@@@@=     ",
"     @@@@@@@@@@@@@@     ",
"     @@@@@@@@@@@@@@     ",
"     +@@@@@@@@@@@@=     ",
"     $@@@@@@@@@@@@-     ",
"      @@@@@@@@@@@@      ",
"      &@@@@@@@@@@;      ",
"       &@@@@@@@@;       ",
"         *#@@#-         ",
"                        ",
"                        ",
"                        ",
"                        ",
"                        ",
"                        ",
"                        ",
"                        ",
"                        ",
"                        ",
"                        ",
"                        ",
"                        ",
"         >,'')!         ",
"       ~{'''''']~       ",
"      ~^''''''''/~      ",
"      {'''(___:<'[      ",
"     >'''''}|||1''2     ",
"     3''4'''}||5'''     ",
"     '''56'''7|5'''     ",
"     '''5|6'''75'''     ",
"     3''5||8'''9''0     ",
"     !''1|||8'''''!     ",
"      ''<:___a'''b      ",
"      ~'''''''''cd      ",
"       ~'''''''bd       ",
"         2'''e!         ",
"                        ",
"                        ",
"                        ",
"                        ",
"                        ",
"                        ",
"                        "};
