/* XPM */
static char * restore0_xpm[] = {
"24 54 35 1",
" 	c #2A313C",
".	c #2A303C",
"+	c #1B7827",
"@	c #26BD3C",
"#	c #75C37D",
"$	c #26BC3C",
"%	c #1B7726",
"&	c #1A5625",
"*	c #75C47D",
"=	c #2ED648",
"-	c #3AE55A",
";	c #2FD647",
">	c #34AF50",
",	c #227B32",
"'	c #237E34",
")	c #2ED547",
"!	c #165B20",
"~	c #032702",
"{	c #248136",
"]	c #1B7725",
"^	c #26BD3B",
"/	c #34AD4F",
"(	c #237D33",
"_	c #27BC3B",
":	c #14571E",
"<	c #175E21",
"[	c #15581E",
"}	c #35B051",
"|	c #34AC4F",
"1	c #2ED446",
"2	c #3AE559",
"3	c #1A5426",
"4	c #2ED548",
"5	c #27BC3C",
"6	c #3AE65A",
"                        ",
"........................",
"........................",
"........................",
"........................",
"........................",
"........ +@##$% ........",
".......&#******=&.......",
"......&#********-&......",
"..... ;***>,,,'#*) .....",
".....+*****!~~~{**].....",
".....^**/***!~~(**_.....",
".....#**(:***<~(**#.....",
".....#**(~:***<(**#.....",
".....^**(~~[***}**_.....",
".....%**{~~~[*****%.....",
"..... =*#',,,|***1 .....",
"......&-********23......",
".......&4******13.......",
"........ ]5##5% ........",
"........................",
"........................",
"........................",
"........................",
"........................",
"........................",
"........................",
"                        ",
"........................",
"........................",
"........................",
"........................",
"........................",
"........ +@##$% ........",
".......&;######=&.......",
"......&6########-&......",
"..... ;###>,,,'##) .....",
".....+#####!~~~{##].....",
".....^##/###!~~(##_.....",
".....###(:###<~(###.....",
".....###(~:###<(###.....",
".....^##(~~[###}##_.....",
".....%##{~~~[#####%.....",
"..... =##',,,|###1 .....",
"......&-########23......",
".......&4######13.......",
"........ ]5##5% ........",
"........................",
"........................",
"........................",
"........................",
"........................",
"........................",
"........................"};
