/* XPM */
static char * rollupO_xpm[] = {
"24 54 4 1",
" 	c #2A313C",
".	c #2A303C",
"+	c #6D8FB6",
"@	c #6E8FB6",
"                        ",
"........................",
"........................",
"........................",
"........................",
"........................",
"........................",
"........................",
"........................",
"........................",
"........................",
"...........++...........",
"..........+@@+..........",
".........+@@@@+.........",
"........+@@@@@@+........",
"........................",
"........................",
"........................",
"........................",
"........................",
"........................",
"........................",
"........................",
"........................",
"........................",
"........................",
"........................",
"                        ",
"........................",
"........................",
"........................",
"........................",
"........................",
"........................",
"........................",
"........................",
"........................",
"........................",
"...........++...........",
"..........+@@+..........",
".........+@@@@+.........",
"........+@@@@@@+........",
"........................",
"........................",
"........................",
"........................",
"........................",
"........................",
"........................",
"........................",
"........................",
"........................",
"........................",
"........................"};
