/* XPM */
static char * rolldownA_xpm[] = {
"24 54 5 1",
" 	c #2A313C",
".	c #2A303C",
"+	c #70727A",
"@	c #B9BBBF",
"#	c #6C6D75",
"                        ",
"........................",
"........................",
"........................",
"........................",
"........................",
"........................",
"........................",
"........................",
"........................",
"........................",
"........................",
"........+@@@@@@#........",
".........+@@@@#.........",
"..........+@@#..........",
"...........+#...........",
"........................",
"........................",
"........................",
"........................",
"........................",
"........................",
"........................",
"........................",
"........................",
"........................",
"........................",
"                        ",
"........................",
"........................",
"........................",
"........................",
"........................",
"........................",
"........................",
"........................",
"........................",
"........................",
"........................",
"........+@@@@@@#........",
".........+@@@@#.........",
"..........+@@#..........",
"...........+#...........",
"........................",
"........................",
"........................",
"........................",
"........................",
"........................",
"........................",
"........................",
"........................",
"........................",
"........................"};
