/* XPM */
static char * titleIS_xpm[] = {
"1 27 2 1",
" 	c #2A313C",
".	c #2A303C",
" ",
".",
".",
".",
".",
".",
".",
".",
".",
".",
".",
".",
".",
".",
".",
".",
".",
".",
".",
".",
".",
".",
".",
".",
".",
".",
"."};
