/* XPM */
static char *close_pressed_png[] = {
/* columns rows colors chars-per-pixel */
"32 32 22 1 ",
"  c #2F343F",
". c #323741",
"X c #333843",
"o c #3A3E49",
"O c #3E434C",
"+ c #424750",
"@ c #444951",
"# c #474B54",
"$ c #474C55",
"% c #4C4F58",
"& c #4C5059",
"* c #51535C",
"= c #51545C",
"- c #595C63",
"; c #5A5C64",
": c #5F6269",
"> c #61646B",
", c #62646C",
"< c #97999E",
"1 c #9FA0A5",
"2 c #A1A3A6",
"3 c #AFB1B4",
/* pixels */
"                                ",
"                                ",
"                                ",
"                                ",
"           XO$&&&&$OX           ",
"         X@*========*@.         ",
"        o&============&o        ",
"       O*==============*O       ",
"      o*================*o      ",
"     X&==================&X     ",
"     @====================@     ",
"    X*=====:<;====-<>=====*X    ",
"    O======<31-==-13<======O    ",
"    $======-132;-132;======#    ",
"    &=======-131131-=======&    ",
"    &========-1332;========&    ",
"    &========-1332;========&    ",
"    %=======-131131-=======&    ",
"    $======-132;-132;======#    ",
"    O======<31-==-13<======O    ",
"    X*=====,<-====-<,=====*X    ",
"     @====================@     ",
"     X&==================&X     ",
"      o*================*o      ",
"       O*==============*O       ",
"        o&============&o        ",
"         .+*========*@X         ",
"           XO$&&&&#OX           ",
"                                ",
"                                ",
"                                ",
"                                "
};
