/* XPM */
static char *close_inactive_png[] = {
/* columns rows colors chars-per-pixel */
"32 32 7 1 ",
"  c #2F343F",
". c #323742",
"X c #353A44",
"o c #4E5159",
"O c #50545B",
"+ c #51545C",
"@ c #585B62",
/* pixels */
"                                ",
"                                ",
"                                ",
"                                ",
"                                ",
"                                ",
"                                ",
"                                ",
"                                ",
"                                ",
"                                ",
"           Xo.    .oX           ",
"           o@O.  .O@o           ",
"           .O@+..O@+.           ",
"            .O@OO@O.            ",
"             .O@@+.             ",
"             .O@@+.             ",
"            .O@OO@O.            ",
"           .O@+..O@+.           ",
"           o@O.  .O@o           ",
"           Xo.    .oX           ",
"                                ",
"                                ",
"                                ",
"                                ",
"                                ",
"                                ",
"                                ",
"                                ",
"                                ",
"                                ",
"                                "
};
