/* XPM */
static char *close_active_png[] = {
/* columns rows colors chars-per-pixel */
"32 32 10 1 ",
"  c #2F343F",
". c #393E49",
"X c #41454F",
"o c #434751",
"O c #434852",
"+ c #84878D",
"@ c #85888E",
"# c #8E9096",
"$ c #909398",
"% c #A2A4A8",
/* pixels */
"                                ",
"                                ",
"                                ",
"                                ",
"                                ",
"                                ",
"                                ",
"                                ",
"                                ",
"                                ",
"                                ",
"           X@.    .+o           ",
"           +%#.  .#%+           ",
"           .#%$..#%$.           ",
"            .#%##%#.            ",
"             .#%%$.             ",
"             .#%%$.             ",
"            .#%##%#.            ",
"           .#%$..#%$.           ",
"           +%#.  .#%+           ",
"           O+.    .+O           ",
"                                ",
"                                ",
"                                ",
"                                ",
"                                ",
"                                ",
"                                ",
"                                ",
"                                ",
"                                ",
"                                "
};
