/* XPM */
static char *maximize_inactive_png[] = {
/* columns rows colors chars-per-pixel */
"32 32 2 1 ",
"  c #2F343F",
". c #585B62",
/* pixels */
"                                ",
"                                ",
"                                ",
"                                ",
"                                ",
"                                ",
"                                ",
"                                ",
"                                ",
"                                ",
"                                ",
"                                ",
"            ........            ",
"            ........            ",
"            ..    ..            ",
"            ..    ..            ",
"            ..    ..            ",
"            ..    ..            ",
"            ........            ",
"            ........            ",
"                                ",
"                                ",
"                                ",
"                                ",
"                                ",
"                                ",
"                                ",
"                                ",
"                                ",
"                                ",
"                                ",
"                                "
};
