/* XPM */
static char *shade_pressed_png[] = {
/* columns rows colors chars-per-pixel */
"32 32 22 1 ",
"  c #2F343F",
". c #323741",
"X c #333843",
"o c #3A3E49",
"O c #3E434C",
"+ c #424750",
"@ c #444951",
"# c #474B54",
"$ c #474C55",
"% c #4C4F58",
"& c #4C5059",
"* c #51535C",
"= c #51545C",
"- c #61636B",
"; c #707379",
": c #72747B",
"> c #7D8085",
", c #808287",
"< c #808288",
"1 c #83858A",
"2 c #ADAEB2",
"3 c #AFB1B4",
/* pixels */
"                                ",
"                                ",
"                                ",
"                                ",
"           XO$&&&&$OX           ",
"         X@*========*@.         ",
"        o&============&o        ",
"       O*==============*O       ",
"      o*================*o      ",
"     X&==================&X     ",
"     @====================@     ",
"    X*====================*X    ",
"    O==========,1==========O    ",
"    $=========,331=========#    ",
"    &========,3223,========&    ",
"    &=======,32:;231=======&    ",
"    &======,32:==;231======&    ",
"    %=====,32:====;231=====&    ",
"    $=====>2:======;2<=====#    ",
"    O======-========-======O    ",
"    X*====================*X    ",
"     @====================@     ",
"     X&==================&X     ",
"      o*================*o      ",
"       O*==============*O       ",
"        o&============&o        ",
"         .+*========*@X         ",
"           XO$&&&&#OX           ",
"                                ",
"                                ",
"                                ",
"                                "
};
