/* XPM */
static char *shade_toggled_inactive_png[] = {
/* columns rows colors chars-per-pixel */
"32 32 8 1 ",
"  c #2F343F",
". c #363B45",
"X c #3E424B",
"o c #42464F",
"O c #434750",
"+ c #444851",
"@ c #575A61",
"# c #585B62",
/* pixels */
"                                ",
"                                ",
"                                ",
"                                ",
"                                ",
"                                ",
"                                ",
"                                ",
"                                ",
"                                ",
"                                ",
"                                ",
"           .        .           ",
"          O@X      X@+          ",
"          o#@X    X@#O          ",
"           o#@X  X@#O           ",
"            o#@XX@#O            ",
"             O#@@#O             ",
"              o##O              ",
"               OO               ",
"                                ",
"                                ",
"                                ",
"                                ",
"                                ",
"                                ",
"                                ",
"                                ",
"                                ",
"                                ",
"                                ",
"                                "
};
