/* XPM */
static char *shade_toggled_active_png[] = {
/* columns rows colors chars-per-pixel */
"32 32 11 1 ",
"  c #2F343F",
". c #424751",
"X c #555962",
"o c #585C64",
"O c #656970",
"+ c #686B73",
"@ c #686C73",
"# c #6C6F77",
"$ c #9FA1A6",
"% c #A0A2A7",
"& c #A2A4A8",
/* pixels */
"                                ",
"                                ",
"                                ",
"                                ",
"                                ",
"                                ",
"                                ",
"                                ",
"                                ",
"                                ",
"                                ",
"                                ",
"           .        .           ",
"          +%o      X$#          ",
"          O&%o    X$&@          ",
"           O&%o  X$&@           ",
"            O&%oX$&@            ",
"             +&$$&+             ",
"              O&&@              ",
"               ++               ",
"                                ",
"                                ",
"                                ",
"                                ",
"                                ",
"                                ",
"                                ",
"                                ",
"                                ",
"                                ",
"                                ",
"                                "
};
