/* XPM */
static char *shade_inactive_png[] = {
/* columns rows colors chars-per-pixel */
"32 32 9 1 ",
"  c #2F343F",
". c #363B45",
"X c #3C404A",
"o c #3E424C",
"O c #42464F",
"+ c #434750",
"@ c #444851",
"# c #575B62",
"$ c #585B62",
/* pixels */
"                                ",
"                                ",
"                                ",
"                                ",
"                                ",
"                                ",
"                                ",
"                                ",
"                                ",
"                                ",
"                                ",
"                                ",
"               +@               ",
"              +$$@              ",
"             +$##$+             ",
"            +$#oX#$@            ",
"           +$#o  X#$@           ",
"          +$#o    X#$@          ",
"          O#o      X#+          ",
"           .        .           ",
"                                ",
"                                ",
"                                ",
"                                ",
"                                ",
"                                ",
"                                ",
"                                ",
"                                ",
"                                ",
"                                ",
"                                "
};
