/* XPM */
static char *stick_pressed_png[] = {
/* columns rows colors chars-per-pixel */
"32 32 28 1 ",
"  c #2F343F",
". c #323741",
"X c #333843",
"o c #3A3E49",
"O c #3E434C",
"+ c #424750",
"@ c #444951",
"# c #474B54",
"$ c #474C55",
"% c #4C4F58",
"& c #4C5059",
"* c #51535C",
"= c #51545C",
"- c #54575F",
"; c #555860",
": c #585A62",
"> c #5B5E65",
", c #6F7278",
"< c #707279",
"1 c #7A7C82",
"2 c #9B9CA1",
"3 c #9D9FA3",
"4 c #A1A2A6",
"5 c #A5A6AA",
"6 c #ABACAF",
"7 c #ABACB0",
"8 c #ACADB0",
"9 c #AFB1B4",
/* pixels */
"                                ",
"                                ",
"                                ",
"                                ",
"           XO$&&&&$OX           ",
"         X@*========*@.         ",
"        o&============&o        ",
"       O*==============*O       ",
"      o*================*o      ",
"     X&==================&X     ",
"     @======-128821-======@     ",
"    X*=====>39999993>=====*X    ",
"    O=====-395,;;,493-=====O    ",
"    $=====195:====:591=====#    ",
"    &=====39,======<92=====&    ",
"    &=====69;======;97=====&    ",
"    &=====69;======;97=====&    ",
"    %=====39,======<92=====&    ",
"    $=====194:====:591=====#    ",
"    O=====-395<;;<593-=====O    ",
"    X*=====>39999993>=====*X    ",
"     @======-126621-======@     ",
"     X&==================&X     ",
"      o*================*o      ",
"       O*==============*O       ",
"        o&============&o        ",
"         .+*========*@X         ",
"           XO$&&&&#OX           ",
"                                ",
"                                ",
"                                ",
"                                "
};
