/* XPM */
static char *stick_toggled_inactive_png[] = {
/* columns rows colors chars-per-pixel */
"32 32 12 1 ",
"  c #2F343F",
". c #303540",
"X c #333843",
"o c #3B3F49",
"O c #3B404A",
"+ c #3C404A",
"@ c #40444E",
"# c #4F535A",
"$ c #50545B",
"% c #53565E",
"& c #565960",
"* c #585B62",
/* pixels */
"                                ",
"                                ",
"                                ",
"                                ",
"                                ",
"                                ",
"                                ",
"                                ",
"                                ",
"                                ",
"            .@#&&#@.            ",
"           X$******$X           ",
"          .$*%+..O%*$.          ",
"          @*%.    .%*@          ",
"          #*+ o%%o +*#          ",
"          &*. %**% .*&          ",
"          &*. %**% .*&          ",
"          #*O o%%o +*#          ",
"          @*%.    .%*@          ",
"          .$*%+..+%*$.          ",
"           X$******$X           ",
"            .@#&&#@.            ",
"                                ",
"                                ",
"                                ",
"                                ",
"                                ",
"                                ",
"                                ",
"                                ",
"                                ",
"                                "
};
