/* XPM */
static char *stick_active_png[] = {
/* columns rows colors chars-per-pixel */
"32 32 17 1 ",
"  c #2F343F",
". c #323742",
"X c #353944",
"o c #373C46",
"O c #383D47",
"+ c #3B404A",
"@ c #535760",
"# c #545861",
"$ c #61656D",
"% c #888B91",
"& c #898C91",
"* c #8C8F94",
"= c #909298",
"- c #95979C",
"; c #9C9EA3",
": c #9D9FA4",
"> c #A2A4A8",
/* pixels */
"                                ",
"                                ",
"                                ",
"                                ",
"                                ",
"                                ",
"                                ",
"                                ",
"                                ",
"                                ",
"            .$&::&$.            ",
"           +*>>>>>>*+           ",
"          .*>-#XX@=>*.          ",
"          $>-o    o->$          ",
"          &>#      #>&          ",
"          ;>X      X>;          ",
"          ;>X      X>;          ",
"          &>@      #>&          ",
"          $>=o    O->$          ",
"          .*>-#XX#->*.          ",
"           +*>>>>>>*+           ",
"            .$&;;%$.            ",
"                                ",
"                                ",
"                                ",
"                                ",
"                                ",
"                                ",
"                                ",
"                                ",
"                                ",
"                                "
};
