/* XPM */
static char *stick_toggled_pressed_png[] = {
/* columns rows colors chars-per-pixel */
"32 32 30 1 ",
"  c #2F343F",
". c #323741",
"X c #333843",
"o c #3A3E49",
"O c #3E434C",
"+ c #424750",
"@ c #444951",
"# c #474B54",
"$ c #474C55",
"% c #4C4F58",
"& c #4C5059",
"* c #51535C",
"= c #51545C",
"- c #54575F",
"; c #555860",
": c #585A62",
"> c #5B5E65",
", c #6B6E74",
"< c #6D6F76",
"1 c #6F7278",
"2 c #707279",
"3 c #7A7C82",
"4 c #9B9CA1",
"5 c #9D9FA3",
"6 c #A1A2A6",
"7 c #A5A6AA",
"8 c #ABACAF",
"9 c #ABACB0",
"0 c #ACADB0",
"q c #AFB1B4",
/* pixels */
"                                ",
"                                ",
"                                ",
"                                ",
"           XO$&&&&$OX           ",
"         X@*========*@.         ",
"        o&============&o        ",
"       O*==============*O       ",
"      o*================*o      ",
"     X&==================&X     ",
"     @======-340043-======@     ",
"    X*=====>5qqqqqq5>=====*X    ",
"    O=====-5q71;;16q5-=====O    ",
"    $=====3q7:====:7q3=====#    ",
"    &=====5q1=<77<=2q4=====&    ",
"    &=====8q;=7qq7=;q9=====&    ",
"    &=====8q;=7qq7=;q9=====&    ",
"    %=====5q1=<77,=2q4=====&    ",
"    $=====3q6:====:7q3=====#    ",
"    O=====-5q72;;27q5-=====O    ",
"    X*=====>5qqqqqq5>=====*X    ",
"     @======-348843-======@     ",
"     X&==================&X     ",
"      o*================*o      ",
"       O*==============*O       ",
"        o&============&o        ",
"         .+*========*@X         ",
"           XO$&&&&#OX           ",
"                                ",
"                                ",
"                                ",
"                                "
};
