/* XPM */
static char *stick_toggled_active_png[] = {
/* columns rows colors chars-per-pixel */
"32 32 20 1 ",
"  c #2F343F",
". c #323742",
"X c #353944",
"o c #373C46",
"O c #383D47",
"+ c #3B404A",
"@ c #4F535C",
"# c #51555E",
"$ c #535760",
"% c #545861",
"& c #61656D",
"* c #888B91",
"= c #898C91",
"- c #8C8F94",
"; c #909298",
": c #95979C",
"> c #96989D",
", c #9C9EA3",
"< c #9D9FA4",
"1 c #A2A4A8",
/* pixels */
"                                ",
"                                ",
"                                ",
"                                ",
"                                ",
"                                ",
"                                ",
"                                ",
"                                ",
"                                ",
"            .&=<<=&.            ",
"           +-111111-+           ",
"          .-1:%XX$;1-.          ",
"          &1:o    o:1&          ",
"          =1% #>:# %1=          ",
"          ,1X :11: X1,          ",
"          ,1X :11: X1,          ",
"          =1$ #::@ %1=          ",
"          &1;o    O:1&          ",
"          .-1:%XX%:1-.          ",
"           +-111111-+           ",
"            .&=,,*&.            ",
"                                ",
"                                ",
"                                ",
"                                ",
"                                ",
"                                ",
"                                ",
"                                ",
"                                ",
"                                "
};
