/* XPM */
static char * task_focus_xpm[] = {
"4 24 2 1",
" 	c #2F343F",
".	c #5294E2",
"    ",
"    ",
"    ",
"    ",
"    ",
"    ",
"    ",
"    ",
"    ",
"    ",
"    ",
"    ",
"    ",
"    ",
"    ",
"    ",
"    ",
"    ",
"    ",
"    ",
"    ",
"    ",
"....",
"...."};
