<?xml version="1.0" encoding="UTF-8" standalone="no"?>
<svg
   xmlns:dc="http://purl.org/dc/elements/1.1/"
   xmlns:cc="http://creativecommons.org/ns#"
   xmlns:rdf="http://www.w3.org/1999/02/22-rdf-syntax-ns#"
   xmlns:svg="http://www.w3.org/2000/svg"
   xmlns="http://www.w3.org/2000/svg"
   xmlns:xlink="http://www.w3.org/1999/xlink"
   xmlns:sodipodi="http://sodipodi.sourceforge.net/DTD/sodipodi-0.dtd"
   xmlns:inkscape="http://www.inkscape.org/namespaces/inkscape"
   id="Layer_1"
   data-name="Layer 1"
   viewBox="0 0 1920 1080"
   version="1.1"
   sodipodi:docname="gruvbox-dark-debian-scalable.svg"
   width="1920"
   height="1080"
   inkscape:version="1.0.1 (3bc2e813f5, 2020-09-07)">
  <metadata
     id="metadata13">
    <rdf:RDF>
      <cc:Work
         rdf:about="">
        <dc:format>image/svg+xml</dc:format>
        <dc:type
           rdf:resource="http://purl.org/dc/dcmitype/StillImage" />
        <dc:title>Android robot</dc:title>
      </cc:Work>
    </rdf:RDF>
  </metadata>
  <sodipodi:namedview
     pagecolor="#ffffff"
     bordercolor="#666666"
     borderopacity="1"
     objecttolerance="10"
     gridtolerance="10"
     guidetolerance="10"
     inkscape:pageopacity="0"
     inkscape:pageshadow="2"
     inkscape:window-width="1920"
     inkscape:window-height="1052"
     id="namedview11"
     showgrid="false"
     fit-margin-top="0"
     fit-margin-left="0"
     fit-margin-right="0"
     fit-margin-bottom="0"
     inkscape:zoom="0.44981343"
     inkscape:cx="1571.2605"
     inkscape:cy="799.80699"
     inkscape:window-x="0"
     inkscape:window-y="28"
     inkscape:window-maximized="1"
     inkscape:current-layer="Layer_1"
     inkscape:document-rotation="0"
     inkscape:snap-intersection-paths="true"
     inkscape:object-paths="true" />
  <defs
     id="defs4">
    <style
       id="style2">.cls-1{fill:#3ddc84;}</style>
    <inkscape:perspective
       sodipodi:type="inkscape:persp3d"
       inkscape:vp_x="0 : 384 : 1"
       inkscape:vp_y="0 : 1000 : 0"
       inkscape:vp_z="1024 : 384 : 1"
       inkscape:persp3d-origin="512 : 256 : 1"
       id="perspective279" />
    <pattern
       inkscape:collect="always"
       xlink:href="#pattern4481"
       id="pattern4486"
       patternTransform="matrix(0.4295427,0,0,0.4295427,-4.3554687e-6,-4.3457032e-7)" />
    <pattern
       inkscape:collect="always"
       xlink:href="#pattern4467"
       id="pattern4481"
       patternTransform="matrix(0.4295427,0,0,0.4295427,-130.66779,-129.37468)" />
    <linearGradient
       id="linearGradient3588">
      <stop
         style="stop-color:#bfe699;stop-opacity:1;"
         offset="0"
         id="stop3590" />
      <stop
         style="stop-color:#313e24;stop-opacity:1;"
         offset="1"
         id="stop3592" />
    </linearGradient>
    <linearGradient
       id="linearGradient3570">
      <stop
         id="stop3572"
         offset="0"
         style="stop-color:#e5ffcb;stop-opacity:1;" />
      <stop
         id="stop3574"
         offset="1"
         style="stop-color:#bfff80;stop-opacity:1;" />
    </linearGradient>
    <linearGradient
       id="linearGradient3303">
      <stop
         style="stop-color:#bfff80;stop-opacity:1;"
         offset="0"
         id="stop3305" />
      <stop
         style="stop-color:#6a8b4a;stop-opacity:1;"
         offset="1"
         id="stop3307" />
    </linearGradient>
    <linearGradient
       id="linearGradient3431">
      <stop
         id="stop3433"
         offset="0"
         style="stop-color:#3d3d3d;stop-opacity:1;" />
      <stop
         id="stop3435"
         offset="1"
         style="stop-color:#000000;stop-opacity:0.11400651;" />
    </linearGradient>
    <linearGradient
       id="linearGradient3349">
      <stop
         style="stop-color:#d3d3d3;stop-opacity:1;"
         offset="0"
         id="stop3351" />
      <stop
         style="stop-color:#ffffff;stop-opacity:1;"
         offset="1"
         id="stop3353" />
    </linearGradient>
    <linearGradient
       id="linearGradient3312">
      <stop
         style="stop-color:#c7f994;stop-opacity:1;"
         offset="0"
         id="stop3314" />
      <stop
         style="stop-color:#87cf3e;stop-opacity:1;"
         offset="1"
         id="stop3316" />
    </linearGradient>
    <linearGradient
       inkscape:collect="always"
       xlink:href="#linearGradient3312"
       id="linearGradient3335"
       gradientUnits="userSpaceOnUse"
       x1="61.42857"
       y1="362.14285"
       x2="116.42857"
       y2="408.57144" />
    <linearGradient
       inkscape:collect="always"
       xlink:href="#linearGradient3349"
       id="linearGradient3374"
       gradientUnits="userSpaceOnUse"
       x1="140.66374"
       y1="424.33243"
       x2="67.175148"
       y2="348.57098" />
    <linearGradient
       inkscape:collect="always"
       xlink:href="#linearGradient3312"
       id="linearGradient3377"
       gradientUnits="userSpaceOnUse"
       x1="61.42857"
       y1="362.14285"
       x2="116.42857"
       y2="408.57144"
       gradientTransform="translate(0,-9.49911)" />
    <linearGradient
       inkscape:collect="always"
       xlink:href="#linearGradient3312"
       id="linearGradient3416"
       gradientUnits="userSpaceOnUse"
       gradientTransform="matrix(1,0,0,-1,0,649.49911)"
       x1="61.42857"
       y1="362.14285"
       x2="116.42857"
       y2="408.57144" />
    <linearGradient
       inkscape:collect="always"
       xlink:href="#linearGradient3431"
       id="linearGradient2259"
       gradientUnits="userSpaceOnUse"
       spreadMethod="pad"
       x1="70.491508"
       y1="416.38858"
       x2="113.64215"
       y2="375.87961" />
    <linearGradient
       inkscape:collect="always"
       xlink:href="#linearGradient3588"
       id="linearGradient3737"
       gradientUnits="userSpaceOnUse"
       x1="26.795013"
       y1="216.34912"
       x2="149.90654"
       y2="323.98651" />
    <pattern
       patternUnits="userSpaceOnUse"
       width="256"
       height="256"
       patternTransform="translate(-297.8418,85.357452)"
       id="pattern4467">
      <image
         sodipodi:absref="/home/fjall/test/123381-mint-logo-white-bg1-Dateien/metal5.html"
         xlink:href="../../123381-mint-logo-white-bg1-Dateien/metal5.html"
         y="0"
         x="0"
         id="image4464"
         height="256"
         width="256" />
    </pattern>
    <pattern
       patternUnits="userSpaceOnUse"
       width="109.96293"
       height="109.96293"
       patternTransform="translate(-130.66779,-129.37468)"
       id="pattern4483">
      <rect
         id="rect4470"
         y="0"
         x="0"
         height="109.96293"
         width="109.96293"
         style="fill:url(#pattern4486);stroke:none" />
    </pattern>
    <linearGradient
       inkscape:collect="always"
       xlink:href="#linearGradient3349"
       id="linearGradient3000"
       gradientUnits="userSpaceOnUse"
       gradientTransform="matrix(1.0484996,0,0,1.0484996,59.525242,85.095989)"
       x1="148.5945"
       y1="426.11398"
       x2="100.47015"
       y2="379.95963" />
    <linearGradient
       inkscape:collect="always"
       xlink:href="#linearGradient3312"
       id="linearGradient3006"
       gradientUnits="userSpaceOnUse"
       gradientTransform="matrix(1.0484996,0,0,1.0484996,59.525242,75.136176)"
       x1="61.42857"
       y1="362.14285"
       x2="116.42857"
       y2="408.57144" />
    <linearGradient
       inkscape:collect="always"
       xlink:href="#linearGradient3312"
       id="linearGradient4003"
       gradientUnits="userSpaceOnUse"
       gradientTransform="matrix(1.0484996,0,0,1.0484996,210.01137,213.49817)"
       x1="61.42857"
       y1="362.14285"
       x2="116.42857"
       y2="408.57144" />
    <linearGradient
       inkscape:collect="always"
       xlink:href="#linearGradient3349"
       id="linearGradient4007"
       gradientUnits="userSpaceOnUse"
       gradientTransform="matrix(1.0484996,0,0,1.0484996,210.01137,223.45798)"
       x1="148.5945"
       y1="426.11398"
       x2="100.47015"
       y2="379.95963" />
  </defs>
  <title
     id="title6">Android robot</title>
  <g
     id="g1019">
    <rect
       style="fill:#282828;fill-opacity:1;fill-rule:nonzero;stroke-width:104.97;stroke-linecap:round;stroke-linejoin:round;paint-order:stroke markers fill"
       id="rect835"
       width="1920"
       height="1080"
       x="-7.4218752e-07"
       y="5.2734376e-06" />
    <path
       id="path3829"
       style="fill:#ebdbb2;fill-opacity:1;stroke-width:3.88658"
       d="m 1574.9455,329.25195 c -6.5295,0.54801 -13.0266,0.87333 -19.4434,1.70117 l 2.8242,0.38477 c 4.7222,-1.72952 11.6094,-0.94717 16.6192,-2.08594 z m -28.5196,3.00391 c -10.6181,0.64518 -25.3481,6.1796 -20.8008,1.14648 -17.3186,7.72652 -48.0775,18.57412 -65.3378,34.75782 l -0.543,-3.62696 c -7.9092,9.4949 -34.4892,28.35717 -36.6074,40.6543 l -2.1153,0.49414 c -4.1159,6.96864 -6.7782,14.86637 -10.0429,22.03711 -5.3829,9.17232 -7.8888,3.52877 -7.1231,4.9668 -10.587,21.46557 -15.8453,39.50261 -20.3887,54.29492 3.2375,4.83879 0.077,29.12965 1.3008,48.57031 -5.3168,96.014 67.3867,189.23786 146.8555,210.76172 11.6481,4.16641 28.9691,4.00606 43.7031,4.43359 -17.3847,-4.97093 -19.6306,-2.6334 -36.5644,-8.53711 -12.2156,-5.75214 -14.8935,-12.3212 -23.545,-19.83007 l 3.4239,6.05078 c -16.9687,-6.00476 -9.8668,-7.43034 -23.6719,-11.80274 l 3.6562,-4.77734 c -5.4994,-0.41587 -14.5672,-9.26895 -17.0468,-14.16992 l -6.0156,0.23633 c -7.2291,-8.9197 -11.0806,-15.34747 -10.8008,-20.32618 l -1.9434,3.46289 c -2.2036,-3.78164 -26.5961,-33.45137 -13.9414,-26.54492 -2.3514,-2.14928 -5.4761,-3.49795 -8.8652,-9.65429 l 2.5761,-2.94727 c -6.0903,-7.83534 -11.209,-17.87827 -10.8203,-21.22461 3.2492,4.38795 5.5035,5.20889 7.7344,5.95898 -15.3792,-38.15841 -16.2406,-2.10198 -27.8887,-38.84179 l 2.4629,-0.19922 c -1.8889,-2.84497 -3.035,-5.93527 -4.5547,-8.9668 l 1.0723,-10.6875 c -11.0728,-12.80238 -3.0974,-54.43589 -1.5,-77.26953 1.1077,-9.28503 9.2423,-19.1683 15.4297,-34.66797 l -3.7695,-0.64843 c 7.2057,-12.56919 41.144,-50.47841 56.8613,-48.52735 7.6138,-9.56486 -1.5134,-0.0356 -3.002,-2.44531 16.7239,-17.30692 21.983,-12.22671 33.2696,-15.33984 12.1728,-7.22515 -10.4474,2.81749 -4.6758,-2.75586 21.0419,-5.37513 14.9124,-12.2189 42.3633,-14.94727 2.8955,1.64791 -6.7193,2.54598 -9.1328,4.68359 17.5323,-8.57767 55.4803,-6.6279 80.1289,4.75977 28.6014,13.36594 60.7369,52.87762 62.0039,90.05273 l 1.4414,0.38868 c -0.7307,14.77677 2.2628,31.86657 -2.9219,47.56445 l 3.5273,-7.43164 c 0.4159,11.29439 -3.3021,16.77371 -6.6562,26.47461 l -6.0371,3.01562 c -4.9399,9.59207 0.4782,6.09136 -3.0586,13.72071 -7.7109,6.85592 -23.4004,21.454 -28.4219,22.78711 -3.665,-0.0816 2.4826,-4.32678 3.2871,-5.99024 -10.3227,7.08912 -8.2811,10.64094 -24.0683,14.94727 l -0.4629,-1.02539 c -38.9358,18.31744 -93.0219,-17.98315 -92.3106,-67.51368 -0.4159,3.14424 -1.18,2.35995 -2.0429,3.63086 -2.0093,-25.48429 11.768,-51.08219 35.0058,-61.5332 22.7287,-11.25164 49.3754,-6.63413 65.6563,8.53906 -8.943,-11.71414 -26.7436,-24.13083 -47.8399,-22.96875 -20.6649,0.32648 -39.9975,13.45889 -46.4492,27.71485 -10.587,6.66548 -11.8144,25.6934 -16.4277,29.17578 -6.2069,45.61675 11.6745,65.32633 41.9238,88.50976 2.409,1.62436 2.721,2.55072 2.5273,3.38672 0.01,-0.009 0.015,-0.0206 0.025,-0.0293 35.6865,13.33097 72.5509,10.09737 103.4297,-14.65624 7.8548,-6.11748 16.4364,-16.52612 18.916,-16.66993 -3.735,5.61611 0.6379,2.70088 -2.2304,7.66016 7.8276,-12.6236 -3.4008,-5.13708 8.0918,-21.79883 l 4.2441,5.8457 c -1.5779,-10.47821 13.0121,-23.20303 11.5312,-39.77539 3.3463,-5.0681 3.736,5.4516 0.1836,17.11133 4.9282,-12.93453 1.2975,-15.013 2.5645,-25.68554 1.3681,3.58731 3.1629,7.40001 4.084,11.18554 -3.2103,-12.49923 3.2972,-21.05044 4.9062,-28.31445 -1.5857,-0.70347 -4.955,5.52683 -5.7246,-9.23828 0.1127,-6.41285 1.7827,-3.36151 2.4278,-4.93946 -1.2592,-0.72291 -4.5629,-5.63953 -6.5723,-15.06835 1.4575,-2.21536 3.8948,5.74384 5.8769,6.07031 -1.2748,-7.49721 -3.4711,-13.21271 -3.5605,-18.96485 -5.791,-12.1028 -2.0472,1.61202 -6.7461,-5.19726 -6.1641,-19.22689 5.1153,-4.4622 5.877,-13.19922 9.3434,13.53694 14.6706,34.51665 17.1152,43.20703 -1.8655,-10.59481 -4.8819,-20.85886 -8.5625,-30.78906 2.8372,1.19318 -4.5695,-21.79988 3.6894,-6.57227 -8.8225,-32.46069 -37.7577,-62.79079 -64.3769,-77.02344 3.2569,2.981 7.3675,6.72367 5.8906,7.31055 -13.2376,-7.88198 -10.9081,-8.49732 -12.8047,-11.82812 -10.7853,-4.38794 -11.4931,0.35544 -18.6367,0.01 -20.3268,-10.78137 -24.2451,-9.63575 -42.9512,-16.39062 l 0.8516,3.97656 c -13.467,-4.48511 -15.6909,1.70245 -30.2461,0.0156 -0.8862,-0.69181 4.6638,-2.50337 9.2305,-3.16797 -13.02,1.71786 -12.4083,-2.56469 -25.1485,0.47461 3.1403,-2.20369 6.4584,-3.66183 9.8086,-5.53516 z m 8.8164,261.97656 c -0.091,0.0881 -0.1177,0.20927 -0.1172,0.3457 0.043,-0.11491 0.09,-0.22889 0.1172,-0.3457 z m -0.1172,0.3457 c -0.2548,0.68811 -0.6969,1.37333 -0.4238,2.40821 -10.0507,-4.70664 -19.255,-11.81161 -26.8222,-20.50977 4.0149,5.8765 8.3486,11.58913 13.9492,16.07813 -9.4755,-3.21032 -22.134,-22.96111 -25.8301,-23.76563 16.3353,29.24649 66.2749,51.29034 92.4238,40.35352 -12.0989,0.44695 -27.4711,0.24996 -41.0664,-4.77539 -5.2516,-2.70269 -12.2231,-8.05974 -12.2305,-9.78907 z m 1.8223,-259.88867 c 3.7272,0.66849 8.0536,1.18029 7.4473,2.07032 4.0771,-0.89392 5.0014,-1.71664 -7.4473,-2.07032 z m 7.4473,2.07032 -2.6367,0.54492 2.4531,-0.21875 z m -171.8496,82.73437 c 1.0883,10.07401 -7.5789,13.98396 1.9199,7.3418 5.0914,-11.46929 -1.9898,-3.16762 -1.9199,-7.3418 z m -7.7422,31.98633 c -6.0475,7.7304 -2.7825,9.37818 -3.4199,14.63672 2.1881,-6.71601 2.5843,-10.75015 3.4199,-14.63672 z m 248.8887,46.69531 c -0.8638,0.0219 -1.9716,2.21527 -2.5293,4.61524 1.302,0.67626 2.3306,8.86499 3.5898,3.80078 0.4217,-6.28849 -0.1968,-8.43788 -1.0605,-8.41602 z m 76.3711,21.19141 -1.0254,2.57226 c -1.8811,13.36205 -5.9437,26.58549 -12.17,38.84375 6.8792,-12.93453 11.3299,-27.08232 13.1954,-41.41601 z m -80.8868,4.70703 c -0.9328,4.6328 -3.4475,8.63074 -5.8144,12.85156 -13.055,8.22011 -1.228,-4.88066 -0.01,-9.85937 -14.0383,17.66838 -1.9283,10.59529 -2.4375,15.53125 v 0 c 4.1587,-5.74048 7.1909,-12.02508 8.2597,-18.52344 z m -28.4648,26.97656 c -5.6783,1.3914 -11.4592,1.42309 -17.2813,0.89063 -6.9842,0.0972 1.3216,3.5989 10.4395,5.00195 2.5185,-1.96661 4.8052,-3.95706 6.8418,-5.89258 z m -88.1367,0.91016 c 1.5391,5.66274 4.6906,10.527 7.625,15.47461 l -2.1485,-6.33399 c -2.4291,-2.68563 -3.8675,-5.91865 -5.4765,-9.14062 z m -5.375,9.56836 -0.9805,4.89648 c 4.59,6.23407 8.2327,12.98951 14.0938,17.86328 -4.2171,-8.23177 -7.3495,-11.63249 -13.1133,-22.75976 z" />
    <path
       style="fill:#689d6a;fill-opacity:1;stroke:none;stroke-width:8.07797;stroke-linejoin:round;stroke-miterlimit:4;stroke-dasharray:none;stroke-opacity:1;paint-order:stroke markers fill"
       d="m 0,432.61133 v 53.69336 h 1299.7637 68.7187 a 15.0015,15.0015 0 0 1 0.6446,-3.72852 c 0.5063,-1.64844 1.2913,-3.92609 1.832,-5.68945 a 15.0015,15.0015 0 0 1 -4.4668,-12.57422 c -0.072,0.59382 -0.4787,0.6144 -0.4277,-4.72852 0.051,-5.34291 2.7742,-12.0413 6.9238,-17.3457 a 15.0015,15.0015 0 0 1 5,-4.11719 c -1.3658,-1.93026 -2.4186,-3.93234 -2.7891,-5.50976 h -68.7187 z"
       id="path4016" />
    <path
       style="fill:#458588;fill-opacity:1;stroke:none;stroke-width:7.14686;stroke-linejoin:round;stroke-miterlimit:4;stroke-dasharray:none;stroke-opacity:1;paint-order:stroke markers fill"
       d="M 0,486.30469 V 540 h 1300.9023 68.7188 c 0.041,-1.40884 0.091,-2.81918 0.1621,-4.23047 -0.6194,-10.69137 -0.1282,-21.67794 0.094,-30.36328 0.1136,-4.44134 0.1414,-8.29514 0.01,-10.71094 -0.1028,-1.88123 -0.6098,-2.31966 0.3399,-0.66797 a 15.0015,15.0015 0 0 1 -1.7442,-7.72265 h -68.7187 z"
       id="path4018" />
    <path
       style="fill:#d79921;fill-opacity:1;stroke:none;stroke-width:5.8354;stroke-linejoin:round;stroke-miterlimit:4;stroke-dasharray:none;stroke-opacity:1;paint-order:stroke markers fill"
       d="m 0,540 v 53.69336 h 1306.375 68.7188 c 0.081,0.3485 0.1692,0.69494 0.2519,1.04297 -4.2201,-17.75629 -6.2654,-36.13182 -5.7246,-54.73633 h -68.7188 z"
       id="path4020" />
    <path
       id="path4022"
       style="fill:#cc241d;fill-opacity:1;stroke:none;stroke-width:4.18076;stroke-linejoin:round;stroke-miterlimit:4;stroke-dasharray:none;stroke-opacity:1;paint-order:stroke markers fill"
       d="m -7.4218752e-7,593.69336 v 53.69336 H 1326.2578 c -8.7427,-16.91235 -15.528,-34.96124 -19.8828,-53.69336 z m 68.71887774218753,0 v 53.69336 H 1394.9767 c -8.7427,-16.91235 -15.528,-34.96124 -19.8828,-53.69336 z" />
  </g>
</svg>
