/* XPM */
static char * icewm_xpm[] = {
"48 20 559 2",
"  	c None",
". 	c #DCD9D9",
"+ 	c #DBD8D8",
"@ 	c #DAADBC",
"# 	c #DBB7C3",
"$ 	c #DBCACF",
"% 	c #DBD3D5",
"& 	c #DA93AB",
"* 	c #D72765",
"= 	c #D6054F",
"- 	c #D60650",
"; 	c #D61157",
"> 	c #D85885",
", 	c #D98BA6",
"' 	c #DBD4D6",
") 	c #DBD2D4",
"! 	c #D84A7C",
"~ 	c #D60E55",
"{ 	c #D8678F",
"] 	c #DA95AD",
"^ 	c #DA9DB2",
"/ 	c #D981A0",
"( 	c #D7346E",
"_ 	c #D7336D",
": 	c #DBC9CF",
"< 	c #D2D0D3",
"[ 	c #ADAEBB",
"} 	c #BCBCC4",
"| 	c #D85080",
"1 	c #D85583",
"2 	c #DBC6CC",
"3 	c #D8668E",
"4 	c #D73A72",
"5 	c #DBD7D7",
"6 	c #CCC9C9",
"7 	c #9C9A9A",
"8 	c #C0BDBD",
"9 	c #D6D3D3",
"0 	c #AFACAC",
"a 	c #9B9999",
"b 	c #D86B91",
"c 	c #D97195",
"d 	c #D3D1D4",
"e 	c #C3C3CC",
"f 	c #B7BACA",
"g 	c #B0B3C4",
"h 	c #B3B4C2",
"i 	c #C2C0C7",
"j 	c #D7D4D5",
"k 	c #DAD7D7",
"l 	c #DAD7D8",
"m 	c #D9D3D5",
"n 	c #D9A2B5",
"o 	c #D60B53",
"p 	c #DA92AB",
"q 	c #D73F75",
"r 	c #D61559",
"s 	c #DAA1B5",
"t 	c #AEABAB",
"u 	c #000000",
"v 	c #B0ADAD",
"w 	c #161616",
"x 	c #535252",
"y 	c #DBD6D7",
"z 	c #D84F7F",
"A 	c #D9D6D7",
"B 	c #CDCBD0",
"C 	c #BBBBC7",
"D 	c #BFC2D3",
"E 	c #C1C4D7",
"F 	c #BABDCE",
"G 	c #B7B7C4",
"H 	c #BAB8BD",
"I 	c #B4B2B6",
"J 	c #BEBCC0",
"K 	c #C3C2C7",
"L 	c #BCB6C0",
"M 	c #D22563",
"N 	c #D67B9C",
"O 	c #DAD8D8",
"P 	c #DA9BB1",
"Q 	c #D988A4",
"R 	c #DAA4B6",
"S 	c #DAA5B7",
"T 	c #D61A5D",
"U 	c #DBC5CC",
"V 	c #D2CFCF",
"W 	c #B9B6B6",
"X 	c #CFCCCC",
"Y 	c #2F2E2E",
"Z 	c #5A5959",
"` 	c #D3D0D0",
" .	c #D7D3D3",
"..	c #CFCDD0",
"+.	c #BEBEC4",
"@.	c #B1B2BB",
"#.	c #BABCCD",
"$.	c #C4C7D9",
"%.	c #CACCDD",
"&.	c #C6C8D8",
"*.	c #B5B7C6",
"=.	c #AAAAB5",
"-.	c #ACACB2",
";.	c #C7C6CA",
">.	c #D7D6D9",
",.	c #D2A6BC",
"'.	c #D41157",
").	c #BFB3C1",
"!.	c #D8D5D7",
"~.	c #DAABBB",
"{.	c #D60A52",
"].	c #DBC7CD",
"^.	c #C1BEBE",
"/.	c #2D2D2D",
"(.	c #121111",
"_.	c #121212",
":.	c #BDBBBB",
"<.	c #A4A2A2",
"[.	c #1F1E1E",
"}.	c #2A2929",
"|.	c #1E1D1D",
"1.	c #BCBABA",
"2.	c #333333",
"3.	c #525151",
"4.	c #2C2C2C",
"5.	c #4B4A4A",
"6.	c #4F4D4D",
"7.	c #3C3B3B",
"8.	c #C1BEC0",
"9.	c #2D2C2D",
"0.	c #080808",
"a.	c #060606",
"b.	c #1C1C1F",
"c.	c #ABAEBC",
"d.	c #B2B3BD",
"e.	c #1A1A1B",
"f.	c #545458",
"g.	c #101011",
"h.	c #010101",
"i.	c #6B6B6F",
"j.	c #D8D7DA",
"k.	c #DC92AE",
"l.	c #D54C7F",
"m.	c #C7C8D3",
"n.	c #C4C4CE",
"o.	c #D2D0D4",
"p.	c #D9D1D3",
"q.	c #DBD0D3",
"r.	c #D60851",
"s.	c #DBB6C2",
"t.	c #474646",
"u.	c #343333",
"v.	c #D7D4D4",
"w.	c #B5B2B2",
"x.	c #191919",
"y.	c #878585",
"z.	c #3D3C3C",
"A.	c #5B5A5A",
"B.	c #AAA8A8",
"C.	c #716F6F",
"D.	c #494849",
"E.	c #353435",
"F.	c #C9C8CA",
"G.	c #8D8C90",
"H.	c #BFBFC9",
"I.	c #B0B2BF",
"J.	c #0C0C0E",
"K.	c #6E6F76",
"L.	c #D0D1D8",
"M.	c #565557",
"N.	c #CCCCD6",
"O.	c #37383B",
"P.	c #28282A",
"Q.	c #D0CFD2",
"R.	c #DB90AB",
"S.	c #D96690",
"T.	c #D3D4DC",
"U.	c #C3C5D2",
"V.	c #B5B5C3",
"W.	c #C2AAB9",
"X.	c #D37D9D",
"Y.	c #D72B68",
"Z.	c #0E0E0E",
"`.	c #7A7878",
" +	c #9E9C9C",
".+	c #848383",
"++	c #A3A1A1",
"@+	c #454444",
"#+	c #3F3E3E",
"$+	c #CFCDCD",
"%+	c #787778",
"&+	c #393839",
"*+	c #D0CED1",
"=+	c #B6B6BD",
"-+	c #777881",
";+	c #6B6C77",
">+	c #131315",
",+	c #6D6D73",
"'+	c #DBDBE0",
")+	c #919091",
"!+	c #D1D2DA",
"~+	c #4E4E53",
"{+	c #232325",
"]+	c #B9B9BF",
"^+	c #CD829F",
"/+	c #D46B91",
"(+	c #DAD9DB",
"_+	c #D8D7DD",
":+	c #C9CAD4",
"<+	c #B6B3C2",
"[+	c #C94D7D",
"}+	c #D8D6D7",
"|+	c #DBCDD1",
"1+	c #D9799B",
"2+	c #D9809F",
"3+	c #817F7F",
"4+	c #B3B1B1",
"5+	c #929090",
"6+	c #414040",
"7+	c #787777",
"8+	c #545353",
"9+	c #CFCCCD",
"0+	c #030303",
"a+	c #6C6B6D",
"b+	c #4A494A",
"c+	c #3C3C3D",
"d+	c #B6B5B9",
"e+	c #0F0F10",
"f+	c #4B4D53",
"g+	c #797B87",
"h+	c #17181A",
"i+	c #6C6C73",
"j+	c #D9D9E0",
"k+	c #989898",
"l+	c #D8D8DF",
"m+	c #525357",
"n+	c #ABADBA",
"o+	c #BC7F9F",
"p+	c #CA4276",
"q+	c #BDBDC5",
"r+	c #C5C5CB",
"s+	c #CCCCD4",
"t+	c #C4BAC9",
"u+	c #CC6A92",
"v+	c #D892AA",
"w+	c #DA94AC",
"x+	c #646363",
"y+	c #ADABAB",
"z+	c #A3A0A0",
"A+	c #959495",
"B+	c #D5D3D7",
"C+	c #D4D2D7",
"D+	c #313132",
"E+	c #504F51",
"F+	c #BDBBC0",
"G+	c #9A9A9F",
"H+	c #99989A",
"I+	c #504F50",
"J+	c #3E3D3E",
"K+	c #77777B",
"L+	c #C0C1CE",
"M+	c #BFC1CF",
"N+	c #676870",
"O+	c #CFD0D9",
"P+	c #9A9898",
"Q+	c #E0DFE2",
"R+	c #58585B",
"S+	c #252528",
"T+	c #B2B4C1",
"U+	c #BBA4BA",
"V+	c #D11E60",
"W+	c #B7B7C5",
"X+	c #B4B5C1",
"Y+	c #BFC0CA",
"Z+	c #C0B1C3",
"`+	c #D05986",
" @	c #D65F8A",
".@	c #D96C92",
"+@	c #D982A0",
"@@	c #4C4B4B",
"#@	c #141414",
"$@	c #A7A5A5",
"%@	c #616060",
"&@	c #ADACAC",
"*@	c #272728",
"=@	c #2E2E2F",
"-@	c #BFBFC3",
";@	c #D7D7DC",
">@	c #BFBFC6",
",@	c #2E2E31",
"'@	c #48484D",
")@	c #AFAFBA",
"!@	c #606064",
"~@	c #1F1F1F",
"{@	c #D9D7D7",
"]@	c #4E4E4E",
"^@	c #3C3C3C",
"/@	c #808084",
"(@	c #9B9BA1",
"_@	c #78787C",
":@	c #070707",
"<@	c #5F6068",
"[@	c #C0C1CD",
"}@	c #979797",
"|@	c #E5E3E4",
"1@	c #59595B",
"2@	c #272729",
"3@	c #B9BAC5",
"4@	c #BEBFCA",
"5@	c #D22B69",
"6@	c #D04E82",
"7@	c #B9BBCB",
"8@	c #B9BCCC",
"9@	c #BABDCD",
"0@	c #B4B7C9",
"a@	c #ADAFBF",
"b@	c #D0B5C1",
"c@	c #DBC3CB",
"d@	c #C2C0C0",
"e@	c #2E2D2D",
"f@	c #0C0B0B",
"g@	c #161515",
"h@	c #8F8E90",
"i@	c #AEAEB2",
"j@	c #3A3A3B",
"k@	c #080708",
"l@	c #0B0B0B",
"m@	c #6B6A6B",
"n@	c #404041",
"o@	c #101010",
"p@	c #1F1F21",
"q@	c #2E2E30",
"r@	c #A7A6AA",
"s@	c #D5D4D6",
"t@	c #4E4D4D",
"u@	c #3F3E3F",
"v@	c #C5C4C9",
"w@	c #2F2F31",
"x@	c #0A0A0B",
"y@	c #666567",
"z@	c #373738",
"A@	c #595A5F",
"B@	c #B2B3BE",
"C@	c #19191A",
"D@	c #929192",
"E@	c #E3E1E2",
"F@	c #605F60",
"G@	c #323233",
"H@	c #C8C9D2",
"I@	c #C4C5D1",
"J@	c #CE84A5",
"K@	c #D5165B",
"L@	c #C4C1D1",
"M@	c #BBBDCE",
"N@	c #BABCCE",
"O@	c #B8BBCC",
"P@	c #B5B8C8",
"Q@	c #D2D1D4",
"R@	c #CECCD0",
"S@	c #BEBFC6",
"T@	c #D0CFD4",
"U@	c #DEDDDF",
"V@	c #E6E5E4",
"W@	c #E5E4E4",
"X@	c #DCDBDC",
"Y@	c #CACACF",
"Z@	c #B8B9C2",
"`@	c #AFB1BC",
" #	c #B9B8C0",
".#	c #CAC9CD",
"+#	c #DAD8D9",
"@#	c #DDDCDD",
"##	c #D2D1D6",
"$#	c #D1D1D6",
"%#	c #D9D9DC",
"&#	c #E0DFE0",
"*#	c #D4D3D8",
"=#	c #C9CAD3",
"-#	c #CBCCD7",
";#	c #D5D4DC",
">#	c #D5D3D6",
",#	c #D4D3D7",
"'#	c #DAD9DC",
")#	c #DFDEE1",
"!#	c #DAD9DD",
"~#	c #D4D4D9",
"{#	c #D4D2D9",
"]#	c #D43671",
"^#	c #CC79A1",
"/#	c #BABCC9",
"(#	c #BCBDC8",
"_#	c #C1C2CE",
":#	c #C0C2D3",
"<#	c #C7C8D2",
"[#	c #D4D2D6",
"}#	c #D8D5D6",
"|#	c #CECDD0",
"1#	c #C8C8CD",
"2#	c #D8D7D9",
"3#	c #DCDBDD",
"4#	c #E2E0E1",
"5#	c #D4D2D5",
"6#	c #C2C1C7",
"7#	c #B6B6BE",
"8#	c #B8B7BE",
"9#	c #D7D6D7",
"0#	c #DBDADD",
"a#	c #E2E0E2",
"b#	c #DBDADC",
"c#	c #CFD0D8",
"d#	c #CDCED9",
"e#	c #D4D3DB",
"f#	c #D2D1D5",
"g#	c #CCCCD2",
"h#	c #CECED6",
"i#	c #D8D8DE",
"j#	c #E1E0E2",
"k#	c #E1DFE1",
"l#	c #DDDDE1",
"m#	c #D6C1D0",
"n#	c #D32365",
"o#	c #BD99B2",
"p#	c #BABAC5",
"q#	c #C5C5CC",
"r#	c #CCCDD7",
"s#	c #C4C6D4",
"t#	c #CDCDD5",
"u#	c #BFBFC5",
"v#	c #BBBBC3",
"w#	c #CFCED2",
"x#	c #CDCDD2",
"y#	c #CECED4",
"z#	c #D8D8DB",
"A#	c #DFDDDE",
"B#	c #C6C7CD",
"C#	c #BCBBC2",
"D#	c #C2C1C5",
"E#	c #D2D0D2",
"F#	c #DFDDDF",
"G#	c #DCDADD",
"H#	c #DFDDE0",
"I#	c #E0DFE3",
"J#	c #DCDBDF",
"K#	c #D2D2D9",
"L#	c #D8D7DE",
"M#	c #DDDCDE",
"N#	c #CFCFD4",
"O#	c #C8C8D0",
"P#	c #DDDCE0",
"Q#	c #E3E2E4",
"R#	c #E2E1E4",
"S#	c #DCDCE3",
"T#	c #D0B7CC",
"U#	c #D02E6C",
"V#	c #BD8AA8",
"W#	c #BBBCC6",
"X#	c #CACAD0",
"Y#	c #CFCFD8",
"Z#	c #C5C6D4",
"`#	c #C1C3CF",
" $	c #CBCAD0",
".$	c #B7B8C2",
"+$	c #C4C4CB",
"@$	c #D3D2D4",
"#$	c #C9C9CD",
"$$	c #C0C1CB",
"%$	c #C6C7D2",
"&$	c #D7D6DD",
"*$	c #E7E5E5",
"=$	c #E6E4E4",
"-$	c #E2E1E2",
";$	c #C4C3C9",
">$	c #BCBCC2",
",$	c #C4C4C8",
"'$	c #D8D6D8",
")$	c #E1E0E0",
"!$	c #DFDFE3",
"~$	c #DEDEE4",
"{$	c #E0DFE4",
"]$	c #DFDFE2",
"^$	c #DFDFE1",
"/$	c #CECDD1",
"($	c #C0C0C8",
"_$	c #C2C2CD",
":$	c #D4D4DF",
"<$	c #DFDEE4",
"[$	c #E4E3E5",
"}$	c #E4E3E4",
"|$	c #DFDEE3",
"1$	c #D1CBD8",
"2$	c #CA6C96",
"3$	c #C6608C",
"4$	c #BCABB9",
"5$	c #C2C2C9",
"6$	c #C5C5CE",
"7$	c #C0C2CE",
"8$	c #BABCCA",
"9$	c #B3B4C0",
"0$	c #C0C1C9",
"a$	c #CCCCD1",
"b$	c #CDCCD1",
"c$	c #BDBEC6",
"d$	c #C6C7D6",
"e$	c #D8D8E0",
"f$	c #E3E2E3",
"g$	c #DCDCE0",
"h$	c #B6B7C1",
"i$	c #B4B4BC",
"j$	c #C5C5C9",
"k$	c #D9D8DA",
"l$	c #DEDDE2",
"m$	c #DBDCE4",
"n$	c #D9DAE5",
"o$	c #DFDFE5",
"p$	c #BABAC2",
"q$	c #BEBFCB",
"r$	c #D1D2DE",
"s$	c #DDDDE4",
"t$	c #E6E5E5",
"u$	c #D7D7DD",
"v$	c #C6C7D5",
"w$	c #B8B9C9",
"x$	c #B6A0B4",
"y$	c #B9B0BB",
"z$	c #BEBEC7",
"A$	c #BDBECA",
"B$	c #BDBFC8",
"C$	c #C1C2CA",
"D$	c #BFBFC7",
"E$	c #B5B6BF",
"F$	c #AFB1BE",
"G$	c #B8BAC8",
"H$	c #C6C8D3",
"I$	c #D3D3DA",
"J$	c #DCDBDE",
"K$	c #D7D6DA",
"L$	c #CFCFD5",
"M$	c #C5C6D0",
"N$	c #B7B9C8",
"O$	c #AAADBD",
"P$	c #A7A9B7",
"Q$	c #B3B4BC",
"R$	c #C7C7CC",
"S$	c #D5D5DA",
"T$	c #D9DAE2",
"U$	c #D7D8E3",
"V$	c #E3E3E5",
"W$	c #E2E1E1",
"X$	c #D5D4D5",
"Y$	c #BEBDC2",
"Z$	c #B4B4BE",
"`$	c #BBBDC9",
" %	c #CFD0DB",
".%	c #B6B7C3",
"+%	c #ADAEBC",
"@%	c #A9AAB9",
"#%	c #AAACB9",
"$%	c #AAACBB",
"%%	c #A9ACBB",
". . . . . . . . . . . . . . . . . . . . . . . . . . . . . . . . . . . . . . + @ # $ % . . . . . ",
". . . . . . . . . . . . . . . . . . . . . . . . . . . . . . . . . . . . . & * = - = ; > , ' . . ",
". . . . . . . . . . . . . . . . . . . . . . . . . . . . . . . . . . . ) ! = ~ { ] ^ / ( = _ : . ",
". . . . . . . . . . . . . . . . . . . . . . . < [ } < + . . . . . . . | = 1 2 . . . . + 3 = 4 5 ",
". . . . 6 7 8 . . . . 9 0 a . . . . b c . . d e f g h i j k k k l m n o p . . . . . . . + q r s ",
". . . . t u v . . . . k w x . . . y z 1 5 A B C D E F G B H I J K L M N O . . . P Q R ' . S T U ",
". . . V W u W . + X + . Y Z . ` . . 5  .+ ..+.@.#.$.%.&.*.=.-.;.>.,.'.).!.. . ] ~.. . % . ) {.].",
". ^./.(._.u :.<.[.}.|.1.2.3.4.u 5.k 6.7.8.9.0.a.b.c.d.e.f.g.h.i.j.k.l.m.n.o.p./ . . . + q.. r.s.",
". t.u.v.w.u :.x.y.. z.A.u.(.B.C.u <.D.E.F.G.H.I.J.K.L.u M.N.O.P.Q.R.S.T.U.V.W.X.l . . y . q.Y.% ",
". Z.`.. w.u  +u .+++@+z.u.#+. $+u %+D.&+*+=+-+;+>+,+'+u )+!+~+{+]+^+/+(+_+:+<+[+}+y ].|+. 1+2+y ",
". h.3+. 4+u 5+u 6+3.3.7+u.8+A 9+0+a+b+c+d+e+f+g+h+i+j+u k+l+m+{+n+o+p+q+r+s+t+u+v+. y + w+> . . ",
". _.x+. y+u z+u A+< B+C+D+E+F+G+u H+I+J+K+g.L+M+>+N+O+u P+Q+R+S+T+U+V+W+X+Y+L+Z+`+ @.@> +@5 . . ",
". @@#@$@%@u &@*@=@-@;@>@,@'@)@!@~@{@]@^@/@0+(@_@:@<@[@u }@|@1@2@3@4@5@6@7@8@9@0@a@b@c@. . . . . ",
". d@e@f@x+g@h@i@j@k@l@m@n@o@p@q@r@s@t@u@v@w@x@y@z@A@B@C@D@E@F@G@H@I@J@K@L@M@N@O@P@Q@. . . . . . ",
". . . . . R@S@T@U@|@V@W@X@Y@Z@`@ #.#+#@###$#%#&#*#=#-#;#>#,#'#)#!#~#{#]#^#/#(#_#:#<#[#. . . . . ",
". . . . }#|#1#2#(+3#&#W@4#5#6#7#8#;.9#@#,#*#0#a#b#c#d#e#f#g#h#i#j#k#l#m#n#o#p#q#r#s#t#}++ . . . ",
". . . {@u#v#w#s@x#y#z#W@V@A#5#B#C#D#E#F#0#G#H#I#J#~#K#L#M#N#O#t#P#Q#R#S#T#U#V#W#X#Y#Z#`# $. . . ",
". . . .$.$+$@$#$$$%$&$|@*$=$-$z#;$>$,$'$)$a#!$~${$]$^$a#E@/$($_$:$<$[$}$|$1$2$3$4$5$6$7$8$. . . ",
". . . 9$0$a$b$c$8$d$e$Q#*$V@f$g$<#h$i$j$k$l$m$n$o$[$*$W@A#;.p$q$r$s$[$t$f$u$v$w$x$y$} z$A$. . . ",
". . . B$C$D$E$F$G$H$I$!#J$K$L$M$N$O$P$Q$R$S$T$U$s$V$*$W$X$Y$Z$`$ %J#&#@#Q@e .%+%@%#%$%%%%%. . . "};
