/* XPM */
static char * errmail_xpm[] = {
"16 16 6 1",
" 	c None",
".	c #E5695A",
"+	c #E66759",
"@	c #E86358",
"#	c #E76559",
"$	c #E5685A",
"                ",
"                ",
"                ",
"  ............  ",
" .+@........@+. ",
" .#  #....#  #. ",
" .$    ++    $. ",
" ..$+      +$.. ",
" ....$$  $$.... ",
" .............. ",
" .............. ",
" .............. ",
"  ............  ",
"                ",
"                ",
"                "};
