/* XPM */
static char * mail_xpm[] = {
"16 16 3 1",
" 	c None",
".	c #1D99F3",
"+	c #1D9AF3",
"                ",
"                ",
" .............. ",
"................",
".. .........+ ..",
"..   .....+   ..",
"...    ..    ...",
"....+      .....",
".......  .......",
"................",
"................",
"................",
"................",
" .............. ",
"                ",
"                "};
