/* XPM */
static char * newmail_xpm[] = {
"16 16 6 1",
" 	c None",
".	c #78C985",
"+	c #79CA84",
"@	c #79CB84",
"#	c #78C984",
"$	c #79C984",
"                ",
"                ",
"                ",
"  ............  ",
" .+@........@+. ",
" .+  +....+  +. ",
" .#    $$    #. ",
" ..#+      +#.. ",
" ....##  ##.... ",
" ......##...... ",
" .............. ",
" .............. ",
"  ............  ",
"                ",
"                ",
"                "};
