/* XPM */
static char * nomail_xpm[] = {
"16 16 3 1",
" 	c None",
".	c #6A7A90",
"+	c #6A7B90",
"                ",
"                ",
"                ",
"  ............  ",
" .............. ",
" ..  .....+  .. ",
" ..    ..    .. ",
" ....      .... ",
" ......  ...... ",
" .............. ",
" .............. ",
" .............. ",
"  ............  ",
"                ",
"                ",
"                "};
