/* XPM */
static char * unreadmail_xpm[] = {
"16 16 5 1",
" 	c None",
".	c #F0EF88",
"+	c #F0F088",
"@	c #F0F289",
"#	c #F0F188",
"                ",
"                ",
"                ",
"  ............  ",
" .+@........@+. ",
" .@  #....#  @. ",
" .+    ++    +. ",
" ..++      ++.. ",
" ....++  ++.... ",
" .............. ",
" .............. ",
" .............. ",
"  ............  ",
"                ",
"                ",
"                "};
